<?xml version="1.0" encoding="utf-8"?>
<!-- Generator: Adobe Illustrator 26.0.1, SVG Export Plug-In . SVG Version: 6.00 Build 0)  -->
<svg version="1.1" id="Layer_1" xmlns="http://www.w3.org/2000/svg" xmlns:xlink="http://www.w3.org/1999/xlink" x="0px" y="0px"
	 viewBox="0 0 507.3 411.6" style="enable-background:new 0 0 507.3 411.6;" xml:space="preserve">
<style type="text/css">
	.st0{fill:#1c222c;}
</style>
<g>
	<g>
		<path class="st0" d="M143.1,342.3c-4.2,8.7-9.1,11.5-14.7,11.7c-11.6,0.4-60.1-12.6-69.6-17.6c-5.3,6.8-13.2,10.8-22.2,10.8
			c-6.2,0-9.9-3.1-9.9-8c0-6.8,5.5-11.4,13.7-11.4c4,0,7.6,1.1,10.9,2.5l13.6-75.1c0.4-2.2,0.7-3.9,0.7-5.1c0-3.1-1.7-3.5-7.4-3.5
			l0.1-0.9l12.9,0.1l10.4-0.1c-0.4,4.8-9.4,45-10.3,48.7L65.2,322c-0.9,4.5-2.5,8.7-4.8,12.1c10.1,3.2,63.1,11.6,70.5,11.6
			c5.8,0,10.1-1.3,11.6-4.4l1.9-3.8l0.7,0.5L143.1,342.3z M40.1,330.1c-6.7,0-11.1,3.5-11.1,8.7c0,3.8,3.1,6.2,8.1,6.2
			c6.3,0,11.6-5,13.8-12.7C47.8,331,44.5,330.1,40.1,330.1z"/>
		<path class="st0" d="M137.2,286.9c-0.4,4.8-3.9,19.4-5,23.1l-2,7.7c-0.1,0.7-0.2,1.4-0.2,2c0,3.2,1.8,4.6,4,4.6s4.8-1.5,6.2-4.1
			l3-5.9l0.7,0.4l-3.8,7.6c-2.5,5-6.5,7.3-10.2,7.3c-5.3,0-10.2-4.8-10.2-13.3c-3.2,6.7-8.3,13.3-19.5,13.3
			c-11.6,0-19.4-6.8-19.4-17c0-16,11.2-26.7,27.9-26.7c6.9,0,11.3,2.1,13.5,6c2-4.6,5.4-5.1,6.4-5.1h8.6V286.9z M112.3,288.4
			c-10.8,0-18,11.4-18,28.4c0,6.5,3.4,10,9.8,10c8.2,0,12.9-8.6,15.4-15.3c0.4-0.9,0.6-3.1,0.7-3.7l0.8-11.5c0-0.4,0.1-1.1,0.1-1.8
			c0-0.5,0-0.9-0.2-1.2C119,289.8,115.3,288.4,112.3,288.4z"/>
		<path class="st0" d="M269,336.5c2.3,0,7.9,1.1,7.9,4.9c0,5.5-6.9,9.1-17.4,9.1c-17.4,0-23.3-15.2-23.3-24.5c0-0.7,0-1.4,0.1-2.1
			l6-55.1c-3.9,3-7.4,6.3-10.5,10.4c-8.6,11.5-14.4,24.6-19,35.8c0.2,1.1,0.2,2.1,0.3,3.1c-3.1,4.2-6.2,11.5-6.6,12.8l-3.1-0.5
			c-2.8-21.6-7.2-49.4-16.8-59.4l-3.9,17.6c-3.3,14-3.9,32-12.4,38.1c-2.3,1.7-4.7,2.4-6.7,2.4c-3.2,0-5.6-1.6-5.6-3.4
			c0-0.1,0-0.3,0-0.4c13.3-3.6,16.9-12.6,22.5-36.7c0.3-1.2,2.4-11.1,4.2-19.4c-0.6-0.4-1.2-0.8-1.8-1.1c1-1,1.6-6.1,1.6-11.1
			c0-2.3-0.1-4.5-0.4-6.3c20.6,6.2,25.7,37.7,28.1,59.8c4.4-10.5,10.1-22.4,18.2-33c9-11.8,19.9-21.4,35.1-28.2l-0.5,5.9l-6.9,3.1
			c-0.9,5.9-3.6,18-4.1,21.4l-7.8,54c-0.3,2.1-0.5,3.9-0.5,5.4c0,5.5,2.5,7.6,11.9,7.6C264,346.9,269,343,269,336.5z"/>
		<path class="st0" d="M285.3,322.4c-2.4,4.7-7.1,7-11.7,7c-5.6,0-10.7-3.5-10.7-10.4c0-3.9,0.9-8.1,1.5-11.2l2.1-11.9
			c0.2-1.4,0.4-2.5,0.4-3.4c0-2-0.5-2.8-1.3-2.8c-1.1,0-2.6,1.6-4,4.2l-2.5,4.9l-0.8-0.4l2.5-4.9c2.9-5.6,7.2-6.7,12-6.7h10.4
			c-0.4,4.8-4.2,19.3-5.2,23.1l-2.1,7.7c-0.3,1-0.4,1.8-0.4,2.5c0,2.8,1.7,4.1,3.8,4.1c2.2,0,4.8-1.4,6.1-4.1l3-5.9l0.7,0.4
			L285.3,322.4z M277.6,257.2c3.8,0,6.8,3.1,6.8,6.8c0,3.9-3.1,6.8-6.8,6.8c-3.8,0-6.8-3.1-6.8-6.8
			C270.9,260.1,274,257.2,277.6,257.2z"/>
		<path class="st0" d="M313.4,295.3c0,0.7,0,1.2-0.1,1.9c3.9-7.8,12.6-14.4,19.3-14.4c5.3,0,8.9,3,8.9,7.4c0,4.2-4.2,7.2-7.4,7.2
			c-0.5,0-1-0.1-1.4-0.3c-0.5-5.7-2.8-8.7-6.4-8.7c-5.6,0-12.9,10-15.7,21.5l-4.7,18.4c0,0.3-0.9,0.5-0.9,0.5l-5.7,0.1
			c-2.9,0-5.6-0.3-5.6-1.1c0-0.1,0-0.3,0-0.4l5.3-31.6c0.2-1.4,0.3-2.4,0.3-3.3c0-2.1-0.5-3-1.3-3c-1.1,0-2.6,1.6-3.9,4.2l-2.5,4.9
			l-0.8-0.4l2.5-4.9c2.9-5.6,7.2-6.9,12-6.9C311.6,286.5,313.4,290.4,313.4,295.3z"/>
		<path class="st0" d="M394.2,286.9c-0.4,4.8-3.9,19.4-5,23.1l-2,7.7c-0.1,0.7-0.2,1.4-0.2,2c0,3.2,1.8,4.6,4,4.6s4.8-1.5,6.2-4.1
			l3-5.9l0.7,0.4l-3.8,7.6c-2.5,5-6.5,7.3-10.2,7.3c-5.3,0-10.2-4.8-10.2-13.3c-3.2,6.7-8.3,13.3-19.5,13.3
			c-11.6,0-19.4-6.8-19.4-17c0-16,11.2-26.7,27.9-26.7c6.9,0,11.3,2.1,13.5,6c2-4.6,5.4-5.1,6.4-5.1h8.6V286.9z M369.2,288.4
			c-10.8,0-18,11.4-18,28.4c0,6.5,3.4,10,9.8,10c8.2,0,12.9-8.6,15.4-15.3c0.4-0.9,0.6-3.1,0.7-3.7l0.8-11.5c0-0.4,0.1-1.1,0.1-1.8
			c0-0.5,0-0.9-0.2-1.2C375.9,289.8,372.2,288.4,369.2,288.4z"/>
		<path class="st0" d="M440.2,334.6c0-2.3-2.4-2.9-6.2-2.9c-5.4,0-13.4,1.4-20.2,1.4c-7.2,0-12.8-2.1-12.8-8.5
			c0-3.4,2.3-8.9,7.6-11.5l1.5-0.7c-3.9-2.1-6.1-5.4-6.1-9.5c0-11.4,9.8-17,23.2-17c4.8,0,8.7,0.7,11.5,2c3.4-1.6,7.1-2.8,10-2.8
			c3.4,0,5,1.5,5,3.8c0,2.6-3.6,4.3-4.9,4.3c-0.3-3.3-2.1-5.4-5.5-5.4c-1,0-2.2,0.2-3.5,0.7c3.2,1.9,4.9,4.8,4.9,8.7
			c0,11.2-10.4,17.6-23.2,17.6c-3.5,0-6.5-0.5-9-1.4l-1.6,0.7c-2.9,1.4-4.2,3.6-4.2,4.8c0,3.1,1.8,4.1,4.7,4.1
			c5.8,0,15.3-4.1,22.6-4.1c5.6,0,11.3,2.4,11.3,10.7c0,12.5-11.2,17.1-26.1,17.1c-12.5,0-20.9-3-20.9-7.6V339
			c0-3.3,2.7-4.2,4.7-4.2c0.7,0,1.4,0.1,1.7,0.3c-0.4,1-0.7,2-0.7,2.9c0,3.9,6.2,6.5,15.5,6.5C430.2,344.6,440.2,340.8,440.2,334.6z
			 M434.1,296.2c0-5.2-2.4-8-7.3-8c-7.3,0-12.2,7.7-12.2,17.6c0,4.9,2.3,6.9,7.4,6.9C429.5,312.7,434.1,306.7,434.1,296.2z"/>
		<path class="st0" d="M462.4,316.1c0,7.6,3.5,10.7,11.6,10.7c6.4,0,13.9-3.7,17.4-7.9l1.6,1.4c-5.3,5.9-13.5,9.4-23,9.4
			c-13.1,0-21.1-6.8-21.1-17.4c0-17.3,12.8-26.4,29.6-26.4c12.4,0,19,3.8,19,10.8c0,11.8-16.3,17.8-35.1,17.9
			C462.4,315.2,462.4,315.7,462.4,316.1z M485.4,295.7c0-4.9-2.5-7.5-7.3-7.5c-7.7,0-14.4,11.7-15.5,24.3
			C476.6,312.6,485.4,307.7,485.4,295.7z"/>
	</g>
	<g>
		<path class="st0" d="M340.3,65.8c-1.2-2.5-3.4-4.4-6.8-5.5c-1.7-0.7-3.4-1.3-5.1-1.9c-1-0.3-2-0.6-3-0.8c-0.2,0-0.5-0.1-0.7-0.1
			c-0.1,0-0.1,0-0.1,0c-0.1-0.1-0.3-0.1-0.4-0.2c-0.1,0-0.1,0-0.3-0.1l-0.1-0.1c-2.6-0.5-5.2-0.7-7.9-0.7c-0.2,0-0.4,0-0.5,0
			c-0.9-0.2-1.9-0.3-2.9-0.3c-2.5-0.1-5-0.1-7.6-0.1c-0.1,0-0.2,0-0.3,0c-1.2,0-2.4,0.1-3.7,0.2c-2.7,0.3-5.4,0.4-8.2,0.4
			c-0.7,0.1-1.3,0.1-1.9,0.2c-0.7,0.1-1.2,0.3-1.7,0.4l0.1-0.8l-0.3-0.3l-1-2.8c0.3,0.3,0.7,0.6,0.9,0.8c0.4,0.4,0.6,0.8,0.9,1.2
			l0.7,0.1c0-0.1,0-0.1,0-0.2c0-0.3,0-0.5-0.1-0.7c-0.3-0.6-0.6-1.1-0.9-1.6c0-0.1,0-0.1,0-0.1c-0.4-0.5-0.6-1-1-1.5l1.4,0.4
			c0.3,0.5,0.5,0.9,0.7,1.3c0.1,0,0.2,0,0.2,0c0.1,0,0.1,0,0.1,0s0,0,0.1-0.1c0-0.1,0.1-0.1,0-0.1c0-0.4-0.1-0.8-0.3-1.2
			c-0.2-0.4-0.4-0.8-0.5-1.3c0-0.1,0-0.1-0.1-0.2l0.2-0.1c0.2,0.1,0.4,0.2,0.7,0.3c0.1,0.1,0.3,0,0.4-0.2c0.1-0.1,0.1-0.1,0.1-0.1
			v-0.1c0,0,0-0.1,0-0.2c0-0.5,0-0.9-0.1-1.4c0.1,0.5,0.4,1,0.6,1.4c0.1,0.5,0.4,0.9,0.7,1.4c0.3,0.1,0.6,0.1,0.8,0
			c0-0.1,0-0.1,0-0.1s0-0.1,0.1-0.2c0.1,0.2,0.2,0.3,0.4,0.5c0.4,0.6,0.8,1,1.5,1.3c0.1-0.1,0.3-0.2,0.4-0.2c0,0,0,0-0.1-0.1
			c-0.8-1.3-1.1-2.8-0.9-4.3c0.4,0.8,0.9,1.5,1.2,2.3c0.1,0.2,0.2,0.2,0.4,0.2c0.1,0,0.2-0.1,0.3-0.1l0,0c0-0.1,0-0.1,0-0.1
			c-0.1-0.5-0.1-1-0.1-1.5c0.1,0.1,0.4,0.1,0.6,0.1c0.1-0.1,0.1-0.2,0.1-0.3c0-0.2,0-0.3,0-0.5v-1l0.8,1.6c0,0.2,0.1,0.3,0.1,0.4
			c0.1,0,0.1,0,0.1,0.1c0.1,0,0.4,0,0.4,0c0.2-0.1,0.3-0.2,0.2-0.3c-0.1-0.5-0.3-0.9-0.4-1.3c0.1,0.1,0.1,0.3,0.4,0.4
			c0,0,0.1,0.1,0.1,0.2l0.6-0.1c0,0.9,0.2,1.8,0.6,2.6c0,0,0,0,0,0.1c0,0,0,0,0.1,0c0.1,0.2,0.2,0.4,0.4,0.6
			c0.1,0.2,0.4,0.2,0.6,0.1c0.1-0.1,0.1-0.1,0.1-0.1c0-0.1,0-0.1,0-0.1c0.1-0.2,0.1-0.4,0.1-0.5c0.1-0.3,0.2-0.6,0.4-0.8
			c0-0.1,0-0.1,0.1-0.1c0,0.1,0,0.1,0,0.1c0,0.2,0,0.4,0,0.6c0,0.1,0,0.1,0,0.1c-0.1,0.1-0.1,0.1-0.1,0.1c0,0.1,0,0.1,0,0.1
			c0,0.1,0,0.2,0.1,0.2c0,0.1,0,0.3,0,0.3s0,0,0,0.1s0,0.1,0,0.1c0.2,0.2,0.4,0.2,0.6,0.1c0.1-0.3,0.3-0.6,0.5-0.8
			c0.3-0.5,0.6-1,1.1-1.5c0,0.2,0,0.4,0,0.7c0,0.4,0,0.9,0.1,1.4c0,0.2,0,0.4,0,0.5c0.1,0.5,0.3,0.8,0.6,1.1c0.2,0,0.3-0.1,0.4-0.2
			c0-0.1,0-0.3,0-0.4c0-0.4,0-0.7,0-1.1l0,0c0-0.4,0.1-0.7,0.1-1v-0.1c0-0.1,0-0.1,0-0.1c0.1,0,0.1,0,0.1-0.1V50h0.1
			c0,0.1,0,0.2,0,0.3c0,0.3,0.1,0.6,0.1,1l0,0c0,0.2,0.1,0.5,0.1,0.7c0.2,0.2,0.4,0.2,0.6,0.2c0,0,0,0,0.1-0.1
			c0.1-0.3,0.1-0.6,0.3-0.8v-0.1c0.1-0.3,0.1-0.6,0.2-0.9c0.1-0.3,0.1-0.6,0.2-0.8s0.2-0.3,0.4-0.4c0.1-0.2,0.2-0.2,0.4-0.3
			c0,0.2,0,0.5,0,0.7c0,0.4,0,0.7,0.1,1.1c0,0.4,0.1,0.7,0.2,1.1c0.1,0.1,0.2,0.1,0.4,0.3c0.1,0,0.1,0.1,0.2,0.1
			c0.2,0,0.3-0.1,0.4-0.3c0.1-0.3,0.1-0.6,0.1-0.8c0-0.1,0-0.1,0-0.1c0,0.1,0,0.1,0.1,0.1l0,0c0,0.1,0,0.1,0,0.2c0,0,0,0,0,0.1
			c0.2,0.2,0.4,0.3,0.7,0.2h0.1c0-0.1,0.1-0.1,0.1-0.2c0.1,0,0.1-0.1,0.1-0.2c0.1-0.3,0.3-0.6,0.4-0.9c0,0,0-0.1,0.1-0.1v0.1
			c0,0.2,0,0.4,0,0.6c0,0.2,0,0.5,0.1,0.7c0,0.3,0,0.6,0,0.9c0.1,0.6,0.4,1,1.1,1.3c0.1-0.1,0.2-0.1,0.3-0.1c0.1,0,0.1,0,0.1-0.1
			c0.1-0.2,0.1-0.4,0.1-0.5l0,0c-0.1-0.3,0-0.6,0-0.8c0.1-0.2,0.1-0.5,0.1-0.7c0.1,0.2,0.1,0.4,0.1,0.6c0,0.3,0,0.6,0.1,0.9
			c0.1,0.3,0.1,0.6,0.2,0.9l0,0c0.3,0.4,0.7,0.4,1,0.2c0,0,0,0,0.1,0c0.1-0.2,0.1-0.3,0.1-0.4c-0.1-0.2,0-0.5,0-0.7
			c0.1,0,0.1-0.1,0.1-0.1s0,0,0,0.1h0.1c0,0,0,0.2,0.1,0.2c0,0.3,0,0.5,0,0.8c0,0.1,0,0.1,0,0.1c0.1,0.3,0.4,0.4,0.7,0.3
			c0.1,0,0.1,0,0.1,0s0,0,0,0.1l0,0c0,0,0,0,0,0.1c0,0,0.1,0,0.1,0.1c0.1,0.1,0.3,0.1,0.5,0c0-0.1,0-0.1,0-0.1
			c0.1-0.3,0.2-0.5,0.2-0.8c0.1-0.7,0.1-1.3,0.1-2c0-0.2,0-0.4,0.1-0.6c0,0.2,0,0.4,0.1,0.5c0.1,0.7,0.4,1.4,0.8,2.1
			c0.1,0.1,0.1,0.1,0.2,0.1s0.1,0,0.1,0c0-0.1,0-0.1,0.1-0.1c0-0.1,0-0.1,0-0.2c-0.3-0.7-0.4-1.3-0.3-2c0.1-0.3,0.1-0.6,0.1-0.8
			c0,0,0-0.2,0.1-0.2c0,0.1,0,0.2,0.1,0.2c0.1,0.2,0.2,0.4,0.4,0.5c0.1,0,0.1,0.1,0.3,0.1c0,0,0,0,0.1,0c0.4,0.8,0.7,1.5,0.9,2.3
			c0,0.1,0,0.1,0,0.1c0.1,0.1,0.2,0.1,0.3,0.2c0.1,0,0.1,0,0.1,0c0.1-0.1,0.1-0.2,0.1-0.3c0.1-1.1-0.1-2.1-0.6-3.1
			c-0.1-0.1-0.1-0.1-0.1-0.1c0.1,0,0.2,0.1,0.4,0.1c0,0,0,0,0.1,0c0.7,0.6,1.2,1.3,1.6,2.1c0,0,0.1,0,0.1,0.1
			c0.1-0.1,0.1-0.1,0.1-0.1c0.1,0.1,0.1,0.1,0.1,0.1c0,0.1,0.1,0.1,0.1,0.1h0.1l0.1-0.1l0,0c0-0.1,0-0.1,0-0.2
			c-0.1-0.9-0.6-1.6-1.6-2.2c-0.1-0.1-0.1-0.1-0.1-0.1c0-0.1-0.1-0.1-0.1-0.1c-1.2-1.1-2.8-1.9-4.8-2.5c-0.1,0-0.1,0-0.2,0
			c-0.9-0.4-1.9-0.8-3-1.1c-0.3-0.1-0.6-0.2-0.9-0.3c-0.6-0.2-1.3-0.4-1.9-0.6c-0.4-0.1-0.7-0.2-1-0.4c0-0.1-0.1-0.1-0.1-0.1
			c-0.4-0.2-0.8-0.3-1.2-0.4c0-0.1,0-0.2,0-0.3c-0.1-0.4-0.1-0.8-0.1-1.1l0.9,0.7h0.1c0.1,0.1,0.2,0.2,0.4,0.4c0,0.1,0,0.1,0,0.1
			c-0.1,0.2,0,0.4,0.2,0.5c0.1,0,0.1,0,0.2,0s0.1-0.1,0.1-0.2c0.1-0.3,0.1-0.6,0.1-0.9c0.1,0.1,0.2,0.2,0.3,0.2l-0.1-1
			c0.1,0.3,0.3,0.5,0.4,0.7c0,0.1,0.1,0.2,0.1,0.2c0.4,0.7,1,1.4,1.7,2c0.1,0.2,0.4,0.3,0.7,0.4l-1.1-3c0.6,0.9,1.7,1.5,2.8,2
			c0.3-0.5,0.1-1-0.4-1.6c-0.6-0.5-0.9-1-1.3-1.6c0.2,0.2,0.4,0.4,0.6,0.6c0,0,0.1,0,0.2,0h0.1h0.1c0-0.1,0-0.2,0-0.2
			c-0.2-0.4-0.4-0.7-0.6-1v-0.1c0.3,0.4,0.6,0.7,0.9,1c0.4,0.4,0.7,0.9,0.9,1.4c0.2,0.4,0.5,0.8,0.8,1.1c0.1,0,0.1,0.1,0.2,0.2
			c0.1-0.1,0.1-0.1,0.1-0.1c0.1,0,0.1-0.1,0.2-0.1c0-0.1,0-0.1,0-0.2c0-0.1,0-0.1,0-0.1c0.1,0.1,0.1,0.1,0.1,0.1
			c0.1,0.1,0.3,0.4,0.4,0.5c0.1,0.2,0.2,0.4,0.3,0.5c0,0,0,0,0,0.1c0.1,0,0.1,0,0.1,0c0.2,0.1,0.5,0.2,0.9,0.1
			c0.1,0,0.1-0.1,0.1-0.1c0-0.3,0-0.5-0.1-0.8c-0.2-0.6-0.4-1.2-0.7-1.8c0.1,0.1,0.1,0.1,0.2,0.1c0.1-0.1,0.1-0.1,0.2-0.1
			c0,0,0,0,0.1,0c0.1-0.3,0.1-0.5,0.1-0.8v-0.1c-0.1,0-0.1,0-0.1,0c-0.1-0.4-0.1-0.7-0.1-1.1l0.7,0.7c0.1,0.1,0.1,0.2,0.2,0.3
			c0,0,0,0,0.1,0c0.4,0.6,0.6,1.1,0.8,1.8c0.2,0.6,0.7,1.2,1.2,1.6c0.1-0.1,0.3-0.1,0.4-0.2c-0.2-0.4-0.4-0.8-0.4-1.2
			c-0.3-0.8-0.6-1.5-0.8-2.2c-0.1-0.2-0.1-0.4-0.2-0.6c-0.1-0.2-0.1-0.5-0.2-0.6c0,0,0,0,0-0.1s0-0.1,0-0.1l0.1,0.1
			c0.1,0.2,0.3,0.4,0.4,0.6c0.2,0.3,0.4,0.6,0.5,0.9c0,0.1,0,0.1,0.1,0.1c0.4,1,1.1,1.9,2,2.7c0.1,0,0.1,0,0.1,0
			c0-0.1,0.1-0.1,0.1-0.1c-0.3-0.6-0.6-1.1-0.9-1.7c-0.2-0.4-0.4-0.8-0.6-1.2c0.1-0.1,0.1-0.1,0.2-0.1c0.2-0.1,0.2-0.3,0.1-0.5
			c-0.2-0.4-0.4-0.9-0.7-1.4c0.4,0.5,0.7,0.8,0.9,1.2c0.1,0.2,0.1,0.3,0.3,0.4V42v0.1c0,0,0,0,0.1,0c0,0.1,0.1,0.1,0.1,0.1l0,0
			c0,0.1,0,0.1,0.1,0.1s0.1,0,0.1,0.1c0.5,0.9,0.9,1.9,1.2,2.9c0,0.1,0.1,0.1,0.1,0.2c0.1,0.1,0.1,0.1,0.1,0.1c0,0.2,0,0.4,0,0.5
			c0.1,0,0.2,0.1,0.3,0.1c0.1,0,0.1,0,0.1,0c0.1,0,0.1,0,0.1-0.1c0.3-0.4,0.4-0.9,0.4-1.4c-0.1-0.8-0.2-1.5-0.4-2.3
			c0.1,0.1,0.1,0.1,0.1,0.1c0.6,0.9,1,1.7,1.4,2.7c0,0.1,0,0.2,0,0.3c0.1,0.3,0.2,0.5,0.3,0.7c0,0.1,0.1,0.1,0.2,0.1h0.1
			c0.1-0.1,0.1-0.1,0.1-0.1c0.1-0.2,0.1-0.4,0.1-0.5c0-0.2-0.1-0.4-0.1-0.6c0-0.1,0-0.1,0-0.1c-0.2-1-0.5-1.9-0.8-2.8
			c-0.1-0.3-0.2-0.6-0.3-0.8c-0.1-0.1-0.1-0.2-0.1-0.3c0.1,0.1,0.2,0.1,0.3,0.2c0.9,0.9,1.4,1.9,1.9,3c0.1,0,0.1,0,0.2,0.1
			c0.1-0.1,0.1-0.1,0.1-0.1s0,0,0.1-0.1c0.1-0.2,0.1-0.3,0.1-0.4c-0.1-0.2-0.1-0.4-0.1-0.6c-0.2-0.7-0.4-1.4-0.7-2.2
			c0.5,0.6,0.9,1.3,1,2.1c0.2,0.1,0.4,0,0.4-0.1c0.1-0.1,0.1-0.2,0.1-0.3c-0.1-0.3-0.1-0.7-0.1-1c0.1,0.1,0.3,0.3,0.3,0.4
			c0.1,0.2,0.1,0.3,0.3,0.5c0.3,0.7,0.4,1.3,0.7,2l0,0h0.1c0,0.2,0.1,0.3,0.1,0.5c0,0.1,0,0.2,0.1,0.3c0.1,0,0.1,0.1,0.1,0.1
			c0,0.1,0.1,0.2,0.1,0.2c0.1,0,0.2,0,0.3,0c0.1-0.2,0.1-0.4,0.1-0.6c0.1-0.9,0-1.7-0.1-2.6c-0.1-0.2-0.1-0.3-0.1-0.4
			c-0.1-0.2-0.1-0.3-0.1-0.3c-0.1-0.1-0.1-0.2-0.1-0.4c0.1,0.2,0.1,0.3,0.1,0.3c0.1,0.1,0.1,0.2,0.2,0.3v0.1
			c0.4,0.6,0.7,1.2,0.8,1.8c0,0.1,0,0.1,0.1,0.2c0.1,0.1,0.1,0.1,0.1,0.1c0,0.1,0.1,0.1,0.1,0.1h0.1c0-0.1,0-0.1,0.1-0.1
			c0-0.1,0-0.1,0-0.1c0.1-0.1,0.1-0.3,0.1-0.4c-0.1-0.7-0.1-1.3-0.3-1.9c-0.1-0.1-0.1-0.1-0.1-0.2c0.1,0,0.1,0,0.1,0
			c0.1,0,0.1,0,0.1,0c0.1,0.2,0.2,0.3,0.2,0.5c0,0,0,0.1,0.1,0.1c0.2,0.4,0.5,0.7,0.9,1c0.1-0.1,0.1-0.1,0.2-0.1c0-0.1,0-0.1,0-0.1
			c0.1,0,0.1-0.1,0.1-0.1c0-0.1,0-0.2-0.1-0.3c0.1,0.1,0.2,0.1,0.3,0.2c0.6,0.8,1.2,1.7,1.7,2.6c0.1,0.2,0.2,0.2,0.4,0.2
			c0.1,0,0.1,0,0.1,0c0.1,0,0.1,0,0.1,0c0.1,0,0.1-0.1,0.1-0.1c0.1-0.1,0.1-0.1,0.1-0.1c0-0.1-0.1-0.2-0.1-0.3
			c-0.2-0.4-0.4-0.7-0.6-1.1c-0.1-0.1-0.1-0.1-0.1-0.1c-0.3-0.5-0.5-1-0.8-1.4c0.4,0.4,0.8,0.8,1.1,1.2c0.1,0.1,0.1,0.1,0.1,0.2
			c0.1,0,0.1,0,0.1,0c0.4,0.5,0.9,1,1.4,1.5c0.1,0,0.1,0,0.1-0.1h0.1c0.1-0.1,0.1-0.3,0.1-0.4c-0.1-0.3-0.1-0.6-0.3-1
			c-0.1-0.2-0.1-0.5-0.3-0.7c-0.4-1.1-1.1-2.1-1.9-3.1c0.5,0.3,1.1,0.7,1.7,1c0.1,0,0.1,0,0.1,0c0-0.1,0-0.1,0.1-0.1v-0.1
			c-0.3-0.3-0.6-0.6-0.9-0.9c0,0,0,0,0-0.1c0,0,0,0-0.1-0.1c-0.2-0.4-0.5-0.7-0.9-1c-0.9-1-2-1.6-3.6-2.1h-0.1
			c-0.1-0.1-0.1-0.1-0.2-0.1s-0.3,0-0.4,0c-0.4-0.2-0.9-0.3-1.4-0.3c-1.1-0.1-2.2-0.2-3.2-0.4c-1.1-0.2-2.1-0.2-3.2-0.2
			c-1-0.4-2-0.7-3.1-0.9c-0.4,0-0.8-0.1-1.2-0.2c0.1-0.1,0.2-0.2,0.3-0.3c0.7-0.6,2.2-1,4.6-1.1c-0.8-0.4-1.9-0.6-3-0.4
			c-0.7,0.1-1.4,0.3-2,0.5c-0.3,0.1-0.6,0.2-0.9,0.3c0.3-1,1.3-1.6,2.9-1.9c-1.4-0.2-3.2,0.4-5.3,1.5c0.1-0.3,0.2-0.5,0.4-0.7
			c0.7-1,1.7-1.9,2.9-2.7c0.2-0.2,0.4-0.4,0.6-0.6c0-0.1,0-0.1-0.1-0.1v0.1c-0.6,0.3-1.1,0.6-1.6,0.9c-0.9,0.7-1.7,1.3-2.4,2
			l-0.1,0.1c-0.4,0.4-0.8,0.8-1.2,1.2c0.4-1.2,1.2-2.3,2.1-3.3c0.7-0.7,1.5-1.3,2.5-1.9h0.1c-0.1-0.1-0.1-0.1-0.1-0.1
			c-0.4-0.2-0.8-0.2-1.2,0.1c-0.6,0.5-1.2,1-1.8,1.4H314c-0.7,0.6-1.4,1.1-2.1,1.8c-0.6,0.5-1.2,1.1-1.7,1.7
			c0.9-2.5,2.3-4.7,4.3-6.8c0.4-0.4,0.8-0.8,1.2-1.2l-0.2-0.2c-0.5,0.3-1,0.6-1.4,1c-0.1,0-0.1,0.1-0.1,0.1c-0.1,0-0.1,0-0.1,0.1
			c-0.6,0.6-1.2,1.2-1.7,1.9c-0.9,1.1-1.7,2.2-2.4,3.4c-0.2-1.7,0.2-3.4,1.3-4.9c0.1-0.2,0.1-0.4,0.3-0.5c0.1-0.1,0.1-0.2,0.1-0.3
			c-0.1-0.1-0.2-0.1-0.2-0.1c-0.4,0.1-0.6,0.4-0.8,0.6c-1.2,1.7-2.2,3.4-2.8,5.2c0.1-1.4,0.4-2.9,0.9-4.3c0.3-0.7,0.4-1.5,0.7-2.2
			c0-0.1-0.1-0.1-0.1-0.2c-0.1,0.1-0.2,0.1-0.3,0.2c-0.4,0.6-0.9,1.2-1.2,1.8c0,0.1,0,0.1,0,0.1c-0.4,0.6-0.6,1.3-1,2
			c0-0.1,0-0.2,0-0.2c-0.1-0.4-0.1-0.8-0.3-1.1c0-0.1-0.1-0.1-0.1-0.1c-0.1,0.1-0.2,0.2-0.3,0.3c-0.3,0.9-0.5,1.9-0.7,2.8
			c-0.3-1.1-0.6-2.2-1.1-3.3c-0.2-0.4-0.4-0.8-0.6-1.2c-0.4,1.5-0.4,2.9-0.3,4.5c0.1,0.9,0.1,1.9,0.1,2.8c-0.4-0.8-0.7-1.5-1-2.3
			c-0.2-0.6-0.4-1.2-0.6-1.8c-0.1-0.5-0.3-1-0.4-1.5c-0.1,0-0.1,0.2-0.1,0.2c0,1.1,0,2.2,0.1,3.3c0,0.6,0.1,1.3,0.2,1.9
			c-0.8-1.4-1.2-2.9-1.2-4.4c-0.1-0.6-0.1-1.1-0.1-1.6c-0.2,0.1-0.4,0.3-0.4,0.6c-0.1,0.4-0.1,0.7-0.1,1c-0.1,1.6,0.1,3.2,0.6,4.8
			c-1.2-1.1-2.4-2.4-3.5-3.7c-0.4-0.5-0.7-0.9-1.2-1.3c-0.1,0.1-0.1,0.4,0.1,0.7c0.1,0.3,0.3,0.5,0.4,0.7l0,0c0.5,0.9,1,1.9,1.5,2.9
			c0.1,0.2,0.2,0.4,0.4,0.6c-0.2-0.2-0.4-0.4-0.5-0.6c-0.5-0.7-1-1.2-1.5-1.9c0-0.1-0.1-0.1-0.3-0.1c-0.2,0.3-0.2,0.5,0,0.7
			c0.4,0.5,0.6,1,0.7,1.5c0.1,0,0.1,0.1,0.1,0.2c0.1,0.1,0.1,0.3,0.3,0.5c0.2,0.3,0.4,0.6,0.5,0.9c-1.1-1.2-2.2-2.4-3.5-3.5
			c-0.9-0.8-1.8-1.6-2.7-2.3c0,0,0,0-0.1,0c-0.3,0.4-0.3,0.6,0.1,0.9c0.7,0.6,1.3,1.2,1.9,1.8c1.2,1.4,2.4,2.8,3.6,4.2
			c-1.3-0.9-2.5-1.9-3.6-2.9c-0.4-0.3-0.7-0.6-1.1-1c-0.4-0.4-0.9-0.7-1.4-1c-0.4-0.1-0.7-0.3-1.1-0.4c-0.1,0.3,0.1,0.5,0.4,0.7
			c0.9,0.7,1.7,1.3,2.6,2.1c0.8,0.8,1.6,1.5,2.1,2.3l-7.9-5.3c0.1,0.3,0.4,0.5,0.7,0.7c1.7,1.4,3.5,2.8,5.3,4.2l0.1,0.1h-0.1
			l-0.1,0.5l0.7,0.8c-1.7-1-3.6-1.9-5.6-2.8c-1-0.4-2-0.8-3.1-1.2c-0.1,0-0.1,0-0.1,0.1s-0.1,0.1,0,0.1c0.9,0.5,1.8,1,2.7,1.5
			c0.1,0,0.1,0,0.1,0.1c0.9,0.5,1.9,1.1,2.7,1.6c0.4,0.2,0.7,0.4,0.9,0.6c0.1,0.1,0.1,0.1,0,0.1c0,0-0.1,0.1-0.2,0.1
			s-0.1,0.1-0.1,0.1c-0.1,0.1-0.1,0.1-0.1,0.1l1.7,1.3l-8.6-4.5c-0.1,0.1-0.1,0.2-0.1,0.2c0.8,0.6,1.6,1.1,2.5,1.5
			c0.4,0.3,0.9,0.5,1.4,0.8s1,0.6,1.5,0.9c-0.6-0.3-1.2-0.5-1.7-0.7c-0.7-0.3-1.5-0.6-2.2-0.8c-0.3-0.1-0.6-0.2-0.9-0.3H284v0.1
			c0,0,0,0,0,0.1c-0.1,0-0.1,0-0.1,0c0.3,0.1,0.6,0.2,0.9,0.4c-0.1,0-0.1,0,0,0.1c0.7,0.3,1.4,0.6,2.1,0.9c0.5,0.3,0.9,0.5,1.4,0.8
			c0.1,0.2,0.3,0.2,0.4,0.3c0.2,0.1,0.5,0.4,0.7,0.5c-0.3-0.2-0.5-0.3-0.8-0.4c-1.1-0.5-2.2-1-3.3-1.5c-0.1,0-0.1,0-0.1,0
			c-0.8-0.4-1.6-0.6-2.4-0.9c-0.6-0.2-1.3-0.4-1.9-0.6c0-0.1-0.1-0.1-0.1,0c0,0,0,0,0,0.1c-0.1,0.2,0,0.3,0.3,0.4
			c1.3,0.5,2.5,1,3.7,1.6s2.2,1.2,3.4,1.8c-1.4-0.6-2.9-1.1-4.4-1.5c-1.2-0.4-2.4-0.7-3.7-0.9c0-0.1-0.1-0.1-0.1-0.1
			c-0.1,0.1-0.2,0.1-0.2,0.1c-0.1,0-0.1,0.1-0.1,0.1c0,0.2,0.1,0.3,0.1,0.3c1.2,0.2,2.3,0.5,3.2,1.2c0.1,0,0.1,0,0.2,0.2l-0.4,0.1
			c0.7,0.1,1.3,0.3,1.7,0.6c0.9,0.6,1.7,1,2.7,1.4l0.1,0.1c0,0,0,0,0.1,0.1c-0.1,0-0.1,0-0.1-0.1c-1.4-0.4-2.9-0.7-4.5-0.8
			c-0.1,0.1-0.1,0.1-0.1,0.2l2.9,1.2c-0.2,0-0.4-0.1-0.7-0.2c-0.7-0.1-1.4-0.2-2.2-0.2c-0.3-0.1-0.6-0.2-0.9-0.1l2.4,1h-1.7
			c0.8,0.2,1.1,0.6,0.9,1.4c0.1,0.2,0.1,0.4,0,0.5c0,0.1,0,0.1,0,0.2c-0.2,0.3-0.3,0.7-0.4,1c-0.1,0.1-0.1,0.2-0.1,0.3
			c-0.7,0.1-1.3,0.2-1.9,0.5c0.1-0.2,0.2-0.3,0.4-0.5c0-0.1,0-0.1,0.1-0.1c0.1-0.1,0.1-0.2,0.1-0.3s0-0.1,0-0.1
			c-0.1,0-0.1-0.1-0.1-0.1c-0.1-0.1-0.4-0.1-0.5-0.1c0.1-0.3,0.1-0.6-0.1-1c-0.1-0.4-0.1-0.7,0.4-0.8c0.4-0.2,0.6-0.2,0.7-0.3
			c-0.3-0.2-0.5-0.3-0.7-0.3c-0.5,0-1,0-1.6,0.2c-0.1,0-0.2,0-0.3,0c0.4-0.8,0.9-1.5,1.3-2.4c0,0,0,0-0.1-0.1c0,0-0.1,0-0.1-0.1
			c-0.1,0-0.1,0-0.1,0.1c-0.1,0.2-0.3,0.3-0.4,0.5c-0.4,0.5-0.7,1-1.1,1.5c-0.1,0.1-0.1,0.1-0.1,0.1v-0.1c0.2-0.3,0.4-0.7,0.6-1
			c0.1-0.2,0.2-0.4,0.3-0.6c0.1-0.2,0.2-0.4,0.3-0.6c0.1-0.3,0.2-0.5,0.3-0.7c-0.1-0.1-0.1-0.1-0.1-0.1c0-0.1-0.1-0.1-0.2-0.1
			c-0.2,0.2-0.4,0.4-0.6,0.7c0,0,0,0,0,0.1c-0.1,0.2-0.2,0.4-0.4,0.6c-0.1,0.2-0.1,0.3-0.3,0.5c0-0.1,0-0.3,0-0.4
			c0-0.1,0-0.1,0.1-0.1c0-0.1,0-0.1,0-0.1c0.3-0.7,0.6-1.4,0.9-2c-0.1-0.1-0.1-0.1-0.1,0c-0.1,0-0.2,0.1-0.3,0.2
			c0-0.1-0.1-0.2-0.1-0.3c-0.1-0.1-0.2-0.1-0.2-0.1c-0.1,0.1-0.1,0.1-0.1,0.1c-0.1,0.1-0.1,0.1-0.2,0.2c0-0.1,0.1-0.3,0.1-0.4
			c0-0.2,0-0.4-0.1-0.5c-0.2,0-0.4-0.1-0.6-0.2c-0.6-0.4-1.2-0.9-1.7-1.4c0.4,0,0.7,0,1.1,0c0.1,0,0.3,0.2,0.4,0.3
			c0.4,0.1,0.6,0.3,0.9,0.5c0.1,0,0.2,0,0.2,0c0.1,0,0.1,0,0.1-0.1c-0.1-0.2-0.2-0.3-0.3-0.5c-0.1,0-0.1-0.2-0.2-0.3v-0.1
			c0-0.1,0-0.1,0.1-0.1c0-0.1,0-0.1,0-0.1c-0.1,0-0.1,0-0.1,0c-0.3-0.5-0.7-0.7-1.2-0.9c-0.3-0.1-0.8-0.2-1.4-0.1
			c-0.2,0-0.4,0-0.6,0.1c-0.1-0.1-0.1-0.1-0.1-0.1c0.1-0.2,0.3-0.3,0.5-0.5c0.5-0.1,0.9,0,1.3,0.3h0.1c0.1,0,0.1,0,0.1-0.1v-0.1
			c-0.1,0-0.1-0.1-0.1-0.1c0-0.1,0-0.1-0.1-0.2c0-0.1,0-0.1-0.1-0.1c0,0-0.1-0.1-0.2-0.1c-0.3-0.4-0.7-0.5-1.4-0.5
			c-0.4-0.1-0.8,0-1,0.2c0-0.2,0-0.5-0.1-0.7c0.1,0,0.1,0,0.1-0.1c0.3-0.1,0.6-0.2,0.9-0.3c0-0.1,0-0.1-0.1-0.1
			c-0.2-0.1-0.4-0.2-0.7-0.2c-0.4,0-0.6,0.3-0.7,0.5c0,0.1,0,0.1,0,0.2c-0.6-0.7-1.4-1.2-2.3-1.7c-0.1,0-0.1,0-0.1,0
			c-0.1,0-0.1,0.1-0.1,0.1l0.1,0.1c0.3,0.3,0.6,0.5,0.9,0.7c-0.3,0-0.5-0.2-0.7-0.3c-0.4-0.1-0.6-0.2-0.9-0.2l-0.4,0.2l-0.1,0.3
			c-0.5,0-1,0.1-1.4,0.3c-0.4,0.1-0.6,0.2-0.9,0.3l-0.1,0.4c0.2-0.1,0.4-0.2,0.7-0.3c0.1-0.1,0.3-0.1,0.4-0.2c0.1,0,0.2,0,0.3,0.1
			c0,0,0,0.1,0,0.2h0.1c-0.3,0.1-0.6,0.2-0.8,0.3c0,0,0,0,0.1,0.1c0,0,0,0,0.1,0.1h0.1c0.4,0,0.7-0.1,1.1-0.1c0.1,0,0.3,0,0.4,0
			c-0.9,0.1-1.7,0.5-2.1,1.1c0.4-0.1,0.7-0.1,0.9-0.1c0,0,0,0-0.1,0.1c0,0.1,0,0.1,0.1,0.1c0,0,0,0,0,0.1c0,0,0,0.1,0.1,0.1
			c0,0.1,0,0.1,0,0.1s0.1,0,0.1-0.1s0-0.1,0.1-0.1c0-0.1,0-0.1,0-0.1c0-0.1,0-0.1,0-0.1c0.1-0.1,0.2-0.1,0.4-0.2
			c-0.1,0.1-0.2,0.2-0.2,0.3c0.1,0,0.1,0,0.2,0.1c0.4-0.2,0.7-0.4,1.2-0.5c0.2-0.1,0.5-0.1,0.8-0.1c-0.3,0-0.5,0.1-0.8,0.3
			c-0.6,0.3-1.2,0.6-1.8,0.9l0.1,0.3c-0.2,0.3-0.4,0.5-0.4,0.8c0,0.2,0,0.3-0.1,0.5c0,0.1,0,0.1,0,0.2c0.1,0,0.1,0,0.2,0
			s0.1,0,0.1,0c0-0.1,0-0.1,0-0.1c0.1-0.1,0.1-0.1,0.1-0.2h0.1h0.1c0.2,0,0.2,0,0.4,0c-0.1,0-0.2,0.2-0.3,0.2c0,0.1,0,0.1,0,0.1
			c0.1,0.1,0.1,0.1,0.2,0.1c0.1-0.1,0.2-0.1,0.4-0.1c-0.1,0-0.1,0.1-0.1,0.1c0.1,0,0.1,0,0.1,0.1h0.1c-0.3,0.1-0.6,0.2-0.8,0.3
			c0,0.1,0,0.1,0,0.1c0.1,0,0.1,0.2,0.1,0c0.6-0.1,1.3-0.2,1.9-0.3c0,0,0,0,0,0.1s0,0.1,0,0.1c0,0.1,0,0.1,0.1,0.2
			c0,0,0,0.1,0.1,0.1h0.1h0.1c-0.1,0-0.1,0-0.1,0c0.1-0.1,0.2-0.2,0.4-0.1c0.1,0,0.3,0,0.4,0.1c-0.2,0-0.4,0-0.6,0c0,0,0,0-0.1,0.1
			c-0.1,0-0.1,0.1-0.2,0.1s-0.3,0-0.4,0l-0.3,0.2c0.9,0.1,1.7,0.3,2.5,0.6c-1.4-0.1-2.5,0.1-3.6,0.3c0.1,0.2,0.1,0.4,0.4,0.6
			c0.2,0.2,0.5,0.2,0.8,0.1c0.9,0.1,1.7,0.3,2.3,0.6c0,0.1-0.1,0.1-0.1,0.1c0.4,0.4,0.7,0.8,1.1,1.1c0.1,0.2,0.4,0.4,0.6,0.5
			c-0.6-0.2-1.4-0.3-2.1-0.4c-1.1-0.3-2.3-0.3-3.5-0.2c-0.2,0.1-0.4,0.2-0.6,0.3c0,0,0,0-0.1,0c0,0,0,0,0.1,0.1c0,0,0,0-0.1,0l0,0
			c-0.1,0.1-0.1,0.1-0.1,0.1v0.1c0.1,0,0.1,0,0.2,0s0.3,0,0.5,0c0,0.1,0.1,0.1,0.1,0.1c0.9,0,1.9,0.1,2.7,0.4c0.1,0,0.3,0.2,0.5,0.2
			l0.4,0.2l-2.4,0.1l2.5,0.8c0.1,0.1,0.2,0.1,0.3,0.2c0.3,0.2,0.6,0.4,0.8,0.6l-3.1-0.3c0-0.1,0-0.2-0.1-0.2h-0.1
			c-0.1,0.1-0.1,0.1-0.1,0.2c-0.4,0-0.6-0.1-0.9-0.1l-0.6-1.1l-0.6-0.2l0.1,1l-0.9-1.3c-0.1-0.2-0.4-0.5-0.5-0.7c0,0-0.1,0-0.2,0
			c-0.1-1.1-0.4-2.1-0.7-3.2c-0.4-1.6-1.2-3.1-2.2-4.5l0,0c0-0.1,0-0.1,0-0.1c-0.1,0-0.1,0-0.1,0v-0.1c0-0.3-0.1-0.5-0.1-0.8
			c-0.1-0.3-0.4-0.7-0.7-1c0,0,0,0-0.1-0.1c-0.6-0.7-1.3-1.4-2-2.2c-1.7-1.6-3.5-3-5.8-4.2c-0.1-0.2-0.4-0.3-0.6-0.4
			c-0.4-0.4-0.9-0.9-1.4-1.3c-0.9-0.7-1.9-1.3-3-1.9c-0.3-0.2-0.6-0.3-0.9-0.4c0,0,0,0,0-0.1c-0.1,0-0.1,0-0.2,0
			c-0.1-0.1-0.2-0.1-0.4-0.2h0.1h-0.1h-0.1c-1.9-0.7-4-1.1-6.2-1.3c-0.4,0-0.7,0.1-1,0.3c-0.4,0.2-0.6,0.4-0.7,0.6
			c0.1,0.1,0.4,0.2,0.7,0.1c0.1-0.1,0.1-0.1,0.3-0.1c1.1,0,2.2,0.1,3.3,0.3c-1.7-0.1-3.2,0.3-4.5,0.9c0,0.1,0,0.1,0,0.1
			c0,0.1,0,0.1,0,0.1s0,0,0,0.1c0.1,0,0.2,0,0.4,0c0.9-0.3,1.9-0.5,2.9-0.5c0.4,0,0.9,0,1.3-0.1c0.3-0.1,0.5-0.1,0.8-0.1
			c-1.6,0.4-3,0.9-4,1.6c0,0.1-0.1,0.1-0.1,0.2s0.2,0,0.5-0.1c0.1,0,0.2,0,0.3-0.1c0.6-0.2,1.2-0.4,1.9-0.5c0.5-0.1,1-0.1,1.5-0.2
			l-0.3,0.4c-0.4,0.4-0.8,0.9-1,1.4c0,0.1-0.1,0.2-0.1,0.3c-0.1,0.5-0.3,0.9-0.3,1.4c-0.1,0.4,0,0.8,0.1,1.1l0.1,0.1l1.7-2.4
			c-0.4,1.1-0.5,2.1-0.4,3.2c0,0.5,0,1,0.1,1.5c0-0.1,0.1-0.1,0.1-0.1h0.1c0,0,0.1-0.1,0.1-0.2c0.1-0.2,0.3-0.4,0.4-0.5
			c0,0,0,0,0.1-0.1l0.1,0.1l0.4,0.2l1-1.4l-0.5,1.4l0.3,0.4l0.5-0.3l1.3-1.7c-0.1,0.3-0.3,0.5-0.4,0.8c-0.2,0.4-0.3,0.7-0.4,1.1
			c0,0.2,0,0.4,0.1,0.6l1.1-1c-0.4,0.7-0.7,1.4-0.9,2.1s-0.3,1.4-0.4,2.1l0.1,0.1c0.1,0,0.1-0.1,0.2-0.1c0-0.1,0-0.1,0-0.1
			c0.1-0.1,0.1-0.3,0.1-0.4c0-0.1,0-0.3,0-0.4l3.2-2.5c-0.7,1.1-1.2,2.2-1.7,3.2c-0.2,0.5-0.4,0.8-0.5,1.3c-0.1,0.2,0,0.3,0.1,0.4
			c0.1,0,0.1-0.1,0.3-0.1c0,0,0,0,0.1-0.1c1-1.5,2.4-2.8,4.2-3.8c0.2-0.2,0.4-0.3,0.7-0.4c0.1,0,0.2-0.1,0.4-0.2
			c-0.1,0.1-0.1,0.2-0.3,0.2c-0.8,0.8-1.4,1.6-1.9,2.5c0,0.1-0.1,0.2-0.1,0.3c-0.2,0.5-0.4,0.9-0.7,1.3c-0.4,0.7-0.4,1.3-0.4,1.9
			c0.4-0.6,0.9-1.2,1.4-1.8c0.3-0.4,0.6-0.7,0.9-1c0.4-0.3,0.8-0.7,1.2-0.9c-0.5,0.6-0.9,1.1-1.4,1.7c-0.5,0.7-0.9,1.4-0.9,2.1
			c-0.1,0.1-0.1,0.2-0.2,0.3c0,0,0,0,0,0.1s0,0.2,0.1,0.2c0.1,0.1,0.1,0.1,0.1,0.1c0.1-0.1,0.2-0.1,0.3-0.1c0-0.1,0-0.1,0-0.1
			c0.1-0.1,0.1-0.1,0.1-0.1c0.2-0.3,0.4-0.6,0.7-0.9c0.1-0.1,0.1-0.1,0.2-0.2c-0.3,0.7-0.4,1.4-0.6,2.1c-0.1,0.4-0.1,0.8,0,1.2
			c0,0.3,0.2,0.5,0.4,0.7c0.1-0.4,0.2-0.8,0.3-1.1c0.4-1.2,1.2-2.3,2.5-3.2c0.1-0.1,0.1-0.1,0.1-0.1c-0.1,0-0.1,0.1-0.1,0.2
			c-0.9,1.1-1.4,2.4-1.5,3.8c-0.1,0.3,0.1,0.5,0.2,0.7h0.1c0,0,0,0,0.1,0c0-0.1,0.1-0.2,0.1-0.2v0.2l-0.1,0.4v0.4l0.3,0.2l0.6-0.5
			c-0.1,0.6-0.1,1.1-0.1,1.7c0,0.1,0,0.3,0.1,0.5l0.1,0.8l0.4-0.8c0.3-0.6,0.6-1.2,1.1-1.8c-0.1,0.1-0.1,0.1-0.1,0.2v0.1
			c-0.1,0.5-0.1,1-0.1,1.5c0,0.3,0.1,0.4,0.3,0.1c0,0,0-0.1,0.1-0.1c0.1-0.5,0.1-1,0.4-1.5l0,0c0.1,0,0.1-0.1,0.1-0.2
			c0.1-0.3,0.3-0.6,0.4-0.9c0-0.1,0-0.1,0-0.1c0.1-0.3,0.3-0.6,0.5-0.9c0.1-0.1,0.1-0.2,0.2-0.2c-0.2,0.4-0.4,0.7-0.7,1.1
			c-0.1,0.4-0.3,0.8-0.4,1.1c-0.1,0.5-0.3,1-0.4,1.5l-0.2,1.4l-1.5-0.6l-1.8-0.7l-0.3,0.6l0.8,0.4l-0.8,0.1c0,0.1-0.1,0.1-0.1,0.2
			l-0.1,0.1l-0.1-0.1l-2.8-1.2c-0.6-0.2-1.2-0.4-1.9-0.5h1.2c0.3,0.2,0.7,0.3,0.9,0.5h0.4c0-0.1,0-0.1,0-0.1
			c-0.1-0.2-0.3-0.3-0.3-0.4c-0.1-0.1,0-0.1,0.1-0.1c0.1-0.1,0.1-0.2-0.1-0.2c-0.8-0.2-1.5-0.4-2.2-0.5c-1.2-0.4-2.4-0.9-3.5-1.5
			c-0.8-0.3-1.6-0.6-2.4-0.9c-1.4-0.6-2.9-1-4.4-1.3c-1.8-1.2-4-1.7-6.5-1.8c-0.2,0-0.4,0-0.6,0.1c-0.6-0.2-1.1-0.2-1.7-0.3
			c-0.1,0-0.1,0-0.1,0c-0.4-0.1-0.8-0.2-1.2-0.2c-0.6-0.1-1.2,0-1.7,0.2c0.8,0.1,1.7,0.3,2.6,0.4c0.1,0,0.1,0,0.1,0
			c0.1,0,0.1,0,0.1,0s-0.1,0-0.1,0.1c-2.1-0.1-4.2,0.1-6.3,0.7c-0.4,0.1-0.6,0.3-0.9,0.5c-0.1,0.2-0.3,0.4-0.2,0.7
			c0.2,0.1,0.4,0.1,0.7-0.1c0-0.1,0.1-0.1,0.1-0.1c1.1-0.4,2.1-0.7,3.1-0.8c-1.4,0.5-2.6,1.1-3.5,2.1c0,0.1,0,0.1-0.1,0.2
			c0.1,0,0.1,0,0.1,0V39c0,0.1,0.1,0.1,0.2,0.1c0.1,0,0.1-0.1,0.2-0.2c0.6-0.5,1.4-1,2.4-1.3c0.4-0.1,0.8-0.3,1.2-0.5
			c0.1,0,0.2,0,0.3-0.1c0.2-0.1,0.4-0.1,0.5-0.2c-0.1,0.1-0.3,0.2-0.4,0.3c-0.4,0.2-0.8,0.5-1.1,0.8c-0.4,0.4-0.8,0.8-1.1,1.2
			c-0.1,0.1-0.1,0.3-0.2,0.4c-0.1,0.1,0,0.1,0,0.2c0.1,0.1,0.2-0.1,0.4-0.3c0.1,0,0.1-0.1,0.2-0.1c0.3-0.4,0.8-0.7,1.4-1
			c0.3-0.2,0.6-0.3,0.9-0.5c-0.2,0.1-0.4,0.4-0.5,0.6c-0.9,1-1.2,2.1-1.2,3.2c0,0.1,0,0.1,0,0.1c-0.1,0-0.1,0,0,0
			c-0.1,0.1-0.1,0.3-0.1,0.5l0.4,1.2l0.4-1.2c0-0.2,0-0.4,0-0.5c0.3-0.8,0.7-1.5,1.2-2.2c0.1,0.6,0.3,1.2,0.6,1.7
			c0.2,0.4,0.5,0.7,0.9,1c0,0,0,0.1,0.1,0l0.1-2.6c0.3,0.9,0.7,1.8,1.2,2.7l1.3,1.6L234,43l0.6,0.1l0.1-1.6l0.2,0.8
			c0,0.3,0.1,0.5,0.1,0.6c0.1,0.2,0.2,0.3,0.4,0.3c0.1,0,0.2-0.1,0.4-0.3c0.1-0.2,0.1-0.4,0.1-0.6l0.2-1.4c0,0.3,0,0.6,0.1,0.9
			c0.1,0.2,0.1,0.3,0.1,0.5l0.6,1l0.4-1.2c0,0.1,0,0.1,0,0.2l1,3.4l1.7-3.4v0.1l0.5,3.8v0.1v0.1c-3.2,0.5-6.2,1.4-8.9,2.6
			c-0.9,0.5-1.9,0.9-2.9,1.5c0,0,0,0.1-0.1,0.2c0,0,0,0,0,0.1c0.1,0.1,0.3,0.1,0.4,0.2c0.4-0.1,0.6-0.1,1-0.1c0,0.1,0.1,0.1,0.1,0.2
			c0.1,0.1,0.2,0.1,0.4,0.1l0.3-0.1l0.2-0.3l0.7-0.2l-1.4,0.9l0.5,0.3l0.3-0.1l-0.8,0.9l0.5,0.3l1.9-1l0.4,0.1l5.8-2.2l-0.2,0.3
			l0.5,0.3l2.1-0.8c-0.5,0.3-1.1,0.5-1.7,0.8c-0.7,0.4-1.4,0.8-2.1,1.3c-0.4,0.3-0.9,0.5-1.2,0.8c-0.6,0.4-1.1,0.8-1.5,1.2l3-1.4
			l0.5,0.1c1.7-0.8,3.5-1.4,5.5-1.9c0.2,0,0.5,0,0.8-0.1c-0.2,0.1-0.4,0.1-0.6,0.1c-0.6,0.2-1.1,0.3-1.6,0.5l0.6,0.4l-1.7,1.2
			l0.2,0.3l0.4,0.1l3.6-1.5l6.1,0.1l0.6,1c-1.5,0.2-2.9-0.1-4.3-0.5c-0.5-0.2-0.9-0.3-1.4-0.4l-0.1,0.4l2.2,0.7l0.1,0.3l1.2,0.6h0.1
			c-0.4-0.1-0.9-0.3-1.3-0.3c-0.3-0.1-0.6-0.2-0.9-0.2c-0.1,0.1-0.3,0.1-0.4,0.2l1,0.8l-3.4-0.8l-1-0.6l-0.1,0.1
			c0,0.1,0,0.2,0.1,0.3c0.3,0.3,0.6,0.6,1,0.8l-0.4,0.9l-0.2-0.6l-2.9-0.7l0.4,0.4l0.1,0.6l-0.6,0.3l-0.9,1.2v-0.9l-0.9,1l0.4-1.7
			c-0.1-0.1-0.1-0.1-0.1-0.1c-0.1,0-0.1,0.1-0.2,0.2c-0.2,0.3-0.4,0.5-0.4,0.8c-0.2,0.2-0.2,0.5-0.3,0.7c0-0.1,0-0.1,0-0.1
			c-0.1,0-0.1-0.1-0.1-0.2h-0.1c0-0.1-0.1-0.1-0.1-0.1c-0.1,0.1-0.1,0.1-0.2,0.1c0,0,0,0,0,0.1c-0.3,0.4-0.4,0.7-0.7,1l-0.2-0.8
			l-0.4-0.3l-0.8-1.5c0,0.1,0,0.1,0,0.1c0,0.6,0.1,1.1,0.1,1.6c0,0.4,0,0.7-0.1,1.1l-0.6,1.2l-0.9-1.2l-0.6,1l-1.8-1.9l0.4,2.8
			c0-0.1-0.1-0.2-0.1-0.2c-0.2-0.3-0.4-0.6-0.6-0.8c-0.5-0.6-1.1-1-1.8-1.2c-0.4-0.2-0.7-0.3-1.1-0.5l2.1,2.7l-0.4-0.1
			c-0.1-0.1-0.1-0.1-0.3-0.2l0,0c-1-0.7-2.1-1.2-3.2-1.7c-0.5-0.3-1.2-0.4-1.7-0.5c-0.4-0.1-0.6-0.2-1-0.1l5.5,2.8l-0.4,0.1
			c-0.1-0.1-0.3-0.3-0.5-0.4c0,0,0,0-0.1,0c-1.1-0.7-2.3-1.3-3.5-1.7c-0.6-0.2-1.2-0.3-1.6-0.1l4.6,2.3c-0.7-0.2-1.4-0.4-2.1-0.6
			c-0.5-0.2-1-0.3-1.5-0.5c-0.9-0.3-1.7-0.4-2.4-0.1l3.5,1.4l-0.4,0.4c-0.9-0.6-2-1-3.2-1.2c-0.1,0-0.1,0-0.1,0c-0.1,0-0.3,0-0.4,0
			c-1.2-0.1-2.3-0.1-3.4,0.2c0,0.1,0,0.1,0,0.1l3.7,0.6l-2.7,0.1c-0.1,0-0.1,0.1,0,0.1c0.1,0.2,0.2,0.2,0.4,0.3
			c0.6,0.1,1.3,0.2,2,0.2c0.4,0.1,0.9,0.2,1.4,0.4l-5.5,0.1l3.5,0.4l-2.2,0.1l0.1,0.4l-0.8,0.3l2.2,0.3c-0.5,0-1,0.1-1.4,0.1h-0.1
			c-2,0.2-4.1,0.3-6.2,0.5c-0.4,0.1-0.7,0.3-0.7,0.7l2.8-0.2l-0.5,0.2l4.7-0.4l0.6,0.3l0.4,0.1c-0.6,0.2-1.3,0.2-2,0.1
			c-1.7,0.2-3.4,0.4-5,0.8c0,0-0.1,0-0.1,0.1c-0.6,0.1-1.2,0.3-1.9,0.5c-0.5,0.2-1,0.4-1.5,0.7l3.7-0.6L214,65l0.5-0.1
			c-4.3,1.1-8.4,2.5-12.2,4.2c-0.2,0.1-0.4,0.2-0.6,0.3c0,0,0,0,0.1,0.1c0.3,0.2,0.6,0.2,0.9,0.1c3-0.7,6.1-1.3,9.2-1.7
			c-1.5,0.7-3,1.6-4.4,2.5l-0.1,0.1c-0.7,0.5-1.6,1-2.5,1.5c-0.4,0.2-0.8,0.4-1.1,0.6c-1.5,1-3,2.1-4.5,3.3l-0.1,0.4L205,73
			l-1.3,1.8c0.1,0,0.2,0,0.3,0c0.1-0.1,0.1-0.1,0.1-0.2l0,0c-0.1-0.1-0.1-0.2-0.1-0.2l4.4-3.1c0.2,0.1,0.1,0.4-0.6,0.9
			c-0.3,0.2-0.6,0.4-0.9,0.7c-0.6,0.7-1.4,1.3-2.2,1.9c-0.9,0.6-1.7,1.4-2.4,2.3c-0.1,0.1-0.1,0.2-0.1,0.3c-0.6,0.7-0.9,1.5-0.8,2.3
			c0.1,0,0.1-0.1,0.2-0.1c0.1-0.4,0.3-0.7,0.4-1c0.2-0.5,0.4-0.8,0.8-1.2c0.2-0.4,0.7-0.8,1.1-1.1c0.9-0.7,1.7-1.3,2.5-2
			c0.5-0.5,1.1-0.9,1.7-1.3l-4.5,4.6l3.8-3c-1.1,1.1-2,2.4-2.7,3.7c-0.1,0.3-0.2,0.5-0.4,0.8c-0.1,0.2-0.1,0.3-0.1,0.4
			c-4,1.9-7.4,4.3-10.1,7.2c-0.4,0.5-0.9,1.1-1.2,1.7c-0.2,0.3-0.4,0.7-0.4,1.1l3.9-3.3c-0.1,0.5-0.1,1-0.4,1.6
			c-0.3,0.8-0.6,1.6-1.2,2.4c-0.2,0.4-0.4,0.7-0.5,1.1c0,0.1,0,0.1,0.1,0.1l3-3.5c-0.1,0.8-0.3,1.4-0.5,2.2
			c-0.1,0.1-0.1,0.2-0.1,0.3c0,0.1,0.1,0.2,0.1,0.3c0,0.1,0.1,0.1,0.2,0.1l2.6-4c0,0.2,0,0.4,0,0.6c0,0.1,0.1,0.3,0.1,0.4
			c0.1,0.2,0.2,0.4,0.4,0.6c0.1,0.1,0.2,0.2,0.4,0.3l1.1-1.6l0.6,1.3l0.8-1.2l0.1,0.8l0.6,0.3c0.2-0.1,0.4-0.3,0.4-0.4
			c0.2-0.4,0.3-0.7,0.4-1c0.5-1.5,1.3-3,2.2-4.4l-0.4,2.7l0.7,0.1v0.9c0.1-0.1,0.2-0.1,0.3-0.1c0.4-0.5,0.9-0.9,1.3-1.3
			c0.4-0.5,0.8-1,1-1.4c0-0.1,0-0.1,0.1-0.2c0.1-0.4,0.3-0.8,0.5-1.2l-1.2,3.2c0.1,0,0.2,0,0.3,0c0.5-0.5,1-0.9,1.4-1.4
			c0-0.1,0.1-0.1,0.1-0.2c0.4-0.6,0.8-1.2,1-1.8c0.6-1.2,0.8-2.4,0.9-3.6c0.4,0.8,0.5,1.5,0.5,2.3c-0.1,0.9-0.4,1.9-0.8,2.7
			c-0.1,0.2-0.3,0.4-0.4,0.6l0.2,0.3c0.6-0.2,0.9-0.5,1.2-0.8c0.4-0.6,0.8-1.1,1.1-1.6c0.4-0.5,0.6-1.1,0.8-1.7
			c0.3,0.8,0.4,1.4,0.2,2.1c-0.1,0.7-0.4,1.4-0.7,2.1l0.3,0.5c0.1,0,0.2,0,0.3,0.1c0.1-0.1,0.3-0.1,0.4-0.1c1.4-1.9,2.3-4,2.8-6.2
			l0.1,1.7l0.6-0.2l1.1-2.8l0.5,0.3l0.1-0.1c0.1,0,0.2,0,0.3-0.1c0.3-0.3,0.4-0.6,0.7-0.8c0.1-0.2,0.1-0.4,0.1-0.5
			c0-0.3,0-0.5,0-0.7c0.4,0.8,0.5,1.7,0.3,2.7c-0.1,0.4-0.3,0.8-0.4,1.1c-0.3,0.5-0.5,0.9-0.7,1.3c0.4,0.2,0.7,0.1,1.1-0.2
			c0.9-0.8,1.7-1.7,2-2.7c0.3-0.8,0.6-1.6,0.9-2.5v0c0.1,0.2,0.1,0.5,0.1,0.8c0,0.4-0.1,0.8-0.2,1.2c-0.1,0.2-0.1,0.4-0.2,0.6
			l0.1,0.3l0.7,0.2l1.9-3.7l0.4,1.2l0.5-0.2l0.2-2.9c0.1,0.8,0.2,1.5,0.1,2.2c0,0.7-0.2,1.4-0.5,2.1c-0.1,0.4-0.3,0.8-0.4,1.2
			c-0.1,0.1,0,0.2,0,0.3L229,78l-1.6,1.1c0.1,0.4,0,0.8-0.4,1.1c-0.9,0.6-1.3,1.3-1.2,2.2c0,0.1-0.1,0.3-0.2,0.5
			c-1.4,1.7-2,3.6-1.7,5.6l1.5,0.5c0.1,1.1,0.4,2.2,0.7,3.2c0.3,0.8,0.5,1.7,0.6,2.6c0.1,0.5,0.5,0.8,1,0.9c0.1,0.1,0.1,0.1,0.2,0
			l0.3-4.1l0.5,1.3h0.6l0.2-4.5h0.6l-0.1-4.5c0.5,0.6,0.9,1.3,1.2,2c0.1,0.2,0.2,0.4,0.3,0.5c0.1,0.2,0.3,0.3,0.5,0.4h0.1l-0.9-5
			l1.7,2.2l0.2-1.9l1.1,1.5c0.2-0.1,0.2-0.1,0.2-0.2c0.2-1.2,0.1-2.4-0.3-3.6c0-0.2-0.1-0.4-0.2-0.6l2.2,2.9c0.1,0,0.1,0.1,0.3,0.1
			c0.1,0,0.1-0.1,0.2-0.1c0-0.1,0-0.1,0.1-0.1l0.1-0.7l0.9,0.9c0.1-0.1,0.1-0.1,0.1-0.2c0.2-1,0.3-2.1,0.1-3
			c-0.1-0.6-0.3-1.2-0.4-1.8l1.7,2.8c0.1,0.1,0.1,0,0.1,0c0.1,0,0.2,0,0.4-0.1l-0.1-4.7l1.6,2.2c0.1-0.1,0.2-0.1,0.2-0.2
			c0.1-0.3,0.2-0.6,0.2-0.9c0-0.2,0-0.4,0.1-0.6c0-0.6,0.1-1.2,0.2-1.7l1.2,1.6c-2.4,4.1-4.7,8.2-6.8,12.3c-1.4,2.8-2.6,5.6-3.7,8.5
			c-0.4,1.2-1,2.4-1.6,3.6c-0.4,0.8-1,1.6-1.7,2.4c-0.9,1.1-1.9,2.3-2.7,3.5c-2.2,3.1-3.6,6.4-4,9.9c-0.1,0.8,0,1.4,0.3,2
			c0.1,0.2,0.2,0.4,0.2,0.6c0,0.1,0,0.1,0,0.2c0.1,0.1,0.1,0.1,0.1,0.1c0,0.1,0.1,0.1,0.1,0.1c0.1-0.1,0.1-0.1,0.2-0.1
			c0-0.1,0-0.1,0-0.2c0,0,0-0.1,0-0.2l0.9-3.8l1.4,3.8c0.1,0.5,0.1,0.9,0.2,1.3c0.1,0.1,0.2,0.2,0.4,0.1c0.1,0,0.3-0.1,0.3-0.2
			c0,0,0-0.1,0-0.2c0-0.3,0-0.7-0.1-1l-0.1-2.6l1.3,2.5c0.2,0.1,0.3,0,0.3-0.2c0-1.3-0.1-2.5-0.2-3.8c-0.1-0.1-0.1-0.3-0.1-0.5
			c0.1,0.2,0.3,0.3,0.4,0.5c0.2,0.2,0.5,0.5,0.8,0.7c0.1,0.1,0.1,0.2,0.4,0.2c0.1,0,0.3,0,0.4,0l-0.1-1.7l1.4,1l-0.1-1.3l1,0.7
			l0.5-0.4l-1.5-5.8l1.4,2.5l0.8-0.2l0.6,0.8c0.1-0.1,0.2-0.2,0.2-0.2c0.2-1,0.3-2,0.1-3l0.4,1.4l0.4,0.2l0.4-0.1
			c0.6-1.9,0.1-3.9-1.2-5.8c-0.3-0.5-0.6-1-0.9-1.4c1.6,1,2.6,2.2,3.1,3.6c0.1,0.5,0.2,1,0.3,1.5c0.1,0.1,0.1,0.1,0.3,0.2
			c0.1,0,0.1,0,0.2-0.1c0.2-0.6,0.4-1.2,0.4-1.8c0.1-1-0.2-1.9-0.8-2.7c1.1,0.8,1.8,1.7,2.2,2.7c0.1,0.4,0.3,0.7,0.4,1l0.6,0.4
			l0.6-0.2c0-0.4,0-0.8-0.1-1.2c0-0.1,0-0.1,0-0.1c-0.3-1.7-0.9-3.4-1.9-4.9c0.2,0.2,0.5,0.4,0.6,0.6c0.3,0.3,0.5,0.5,0.8,0.7
			c0.1,0,0.1,0,0.1,0l-0.8-3.1l0.6,0.1c0.1-0.1,0.1-0.1,0.1-0.1c0.1-0.1,0.1-0.2,0.1-0.2c0.1-0.7-0.1-1.2-0.6-1.9
			c0-0.1-0.1-0.2-0.1-0.2c1.7,1.1,2.7,2.5,2.8,4.1c0,0.2,0,0.3,0,0.5c0,0,0,0.1,0.1,0.2c0.6,0,0.9-0.3,0.9-0.7
			c0.1-1.8-0.2-3.4-1.1-5.1l1.2,2.1l0.6,0.3c0.1-0.1,0.2-0.1,0.2-0.2c0-0.7,0-1.3-0.1-1.9c-0.1-0.7-0.4-1.3-0.6-2l0.7,0.9h0.6
			l-1.7-2.7c0.6,0.6,1.2,1.2,1.6,1.8c0.4,0.6,0.6,1.3,0.7,1.9c0.1,0.6,0.5,1,1.1,1.4c0.2,0,0.3,0,0.4-0.1c0.3-1.1,0.1-2.1-0.7-3.1
			c-0.1-0.2-0.2-0.4-0.4-0.5c-0.4-0.6-0.8-1.2-1.1-1.7c-0.1-0.3-0.3-0.5-0.5-0.7c0.8,0.2,1.3,0.5,1.6,1c0.4,0.5,0.7,1,1.2,1.5
			l0.4-0.1l0.1-0.7h0.6c0.1,0,0.1,0,0.1-0.1s0-0.3-0.1-0.4c-0.2-0.3-0.4-0.6-0.6-0.9l1.1,0.3l0.2-0.3l-2.4-4
			c0.6,0.5,1.3,1.1,1.9,1.7c0.8,1,1.4,2.1,1.8,3.3c0,0,0.1,0,0.2,0c0-0.1,0-0.2,0-0.2c0-1.2-0.4-2.3-1.3-3.2l2.1,2.1l0.6-0.2l-3-4
			c0.6,0.2,1.1,0.5,1.3,1c0.3,0.6,0.7,0.8,1.4,0.6l-1.5-2l0.4-0.4c-0.4-1.6-1.4-3-3-4.2c-0.2-0.2-0.4-0.4-0.7-0.6
			c2,0.8,3.6,1.9,4.8,3.3c0,0.1,0.1,0.1,0.1,0.2c0.7,0.9,1.2,1.9,1.5,2.9c0,0.1,0,0.1,0.1,0.1c0.1-0.1,0.1-0.1,0.1-0.1
			c0.1-1.2-0.1-2.3-0.4-3.4c-0.4-1-0.9-1.9-1.5-2.9l3,3.2c0.1-0.1,0.1-0.2,0.1-0.2c0-0.7-0.1-1.4-0.4-2.1c-0.2-0.6-0.4-1.1-0.7-1.7
			c0.1,0.1,0.1,0.1,0.3,0.2c0.4,0.5,1,1,1.6,1.4c0.1,0.1,0.1,0.1,0.4,0.1c0.1,0,0.1-0.1,0.1-0.2c0.1-1-0.2-1.9-0.8-2.8
			c0.1,0.1,0.3,0.2,0.4,0.4c0.6,0.5,1.1,0.9,1.7,1.3c0.1,0,0.1,0,0.2,0l-0.1-1.6l0.6,0.1l0.1-1.7l1.1,0.3c-0.9,1.6-1.6,3.3-2.3,4.9
			c-0.2,0.5-0.4,1-0.5,1.6l-0.1,0.2l-0.9,2.9l0.1,2.1l-0.9,0.4l0.3,1.1l-0.9,0.5v0.5l0.4,0.3l-1,0.8l0.1,0.4l0.4,0.5l-0.1,0.3
			l-0.9,0.5l0.1,0.9l0.7,0.5c-0.5,0.4-1,0.9-1.4,1.3s-0.6,0.8-0.5,1.3l0.2,0.2l0.1,2l0.4,0.2c-0.4,3.2-0.3,6.3,0.6,9.5l0.4,0.2
			l1.2-6.4l0.3,2.4l0.5,0.2l-0.1-0.4l0.1-0.9l0.6-0.1v-5.4l1.2,2.8c0.4-0.5,0.7-1,0.5-1.6c-0.1-0.5-0.1-0.9-0.2-1.3
			c-0.1-0.8-0.3-1.5-0.4-2.3l0.4-1.1l1.5,2.7c0.1-0.2,0.1-0.3,0.1-0.4c0-0.8,0-1.5,0-2.3s0-1.6-0.1-2.5c0-0.1,0-0.1,0-0.1l0.6,2
			l0.5,0.4c0.4-0.1,0.5-0.2,0.4-0.3c0-0.7-0.1-1.3-0.1-1.9c-0.1-0.3-0.1-0.5-0.1-0.7c0.5,0.9,0.9,1.9,1.1,3c0.1,0.5,0.4,0.9,0.9,1
			l-0.4-5.6c0.2,0.1,0.2,0.1,0.3,0c0.1-0.5,0.1-1,0.1-1.5c0-0.4,0-0.8,0-1.2l0.5-0.1c0-0.1,0-0.2,0.1-0.3c0-0.2,0.1-0.4,0.2-0.5
			s0.1-0.1,0.1-0.1s0,0,0.1,0l-0.4-4.6l1.2,3.1l-0.4,1l0.4,0.5l0.6-0.4l0.1-0.5l0.4-0.1l-0.2-0.3l5.5-5.2l-0.1,1.8
			c-0.1,0.1-0.1,0.1-0.3,0.2l0,0c-1.1,0.7-2.1,1.4-3,2.3s-1.8,1.8-2.5,2.9c-0.1,0.1-0.2,0.3-0.2,0.5c-0.1,0.1-0.1,0.2-0.1,0.3
			l6.1-5.8l-0.1,1.3c-0.2,0.2-0.4,0.3-0.6,0.5c0,0.1,0,0.1-0.1,0.1c-2.2,1.8-3.8,3.7-5,6c-0.1,0-0.1,0.1-0.1,0.2h0.5l5.2-5.8
			l-0.1,2.3c-0.2,0.2-0.5,0.5-0.7,0.7c0,0,0,0,0,0.1c-1.9,1.7-3.3,3.6-4,5.7l0,0c-0.1,0.3-0.2,0.7-0.1,1c0,0,0.1,0,0.2,0
			c0,0,0-0.1,0.1-0.2c0.1-0.3,0.2-0.5,0.4-0.8c0.9-2,2.2-3.9,4.1-5.5c-0.5,1.4-1,2.7-1.6,4c-0.2,0.5-0.4,1-0.6,1.5
			c-0.4,1-0.5,1.8-0.2,2.7l2.3-4.6l-0.9,5l0.5,0.3l-0.1,20.5c0,3,0.1,6.1,0.2,9.2c1.7,14.5,1.1,19,0.5,35.3h0.1
			c0,0.1-0.1,0.1-0.1,0.2c0,0.6,2.5,1.1,5.6,1.1s5.6-0.5,5.6-1.1c0-0.1,0-0.1-0.1-0.2h0.1c-5.6-23.3-7.3-37-6.6-61.1
			c0-0.1,0-0.2,0-0.2c0.1,0.1,0.1,0.1,0.2,0.2c0.4,0.4,0.7,0.7,1.2,0.9c0.1-0.1,0.1-0.1,0.2-0.1c0.1-1.1,0.2-2.2,0.1-3.3
			c0-0.4,0-0.7,0-1c0.1-1-0.1-1.9-0.6-2.8c-0.1-0.2-0.2-0.4-0.3-0.6c-0.1-0.1-0.1-0.1-0.1-0.2c-0.2-0.3-0.4-0.6-0.7-0.9
			c0-0.3,0-0.6,0-0.9c0.6,0.8,1.1,1.6,1.4,2.5c0.1,0.3,0.2,0.5,0.3,0.8c0,0.1,0,0.1,0,0.1c0.1,0.1,0.2,0.1,0.4,0.2
			c0-0.1,0.1-0.1,0.1-0.1c0.1,0,0.2-0.1,0.2-0.1c-0.3-1.3-0.7-2.5-1.4-3.8c-0.1-0.2-0.1-0.3-0.1-0.4c-0.2-0.4-0.5-0.7-0.9-1
			c0.1,0.1,0.2,0,0.3-0.1c0.1,0,0.1-0.1,0.1-0.1c0.1,0.1,0.3,0.2,0.4,0.4c0.1,0,0.1,0,0.1,0c0.1,0.2,0.3,0.4,0.4,0.6
			c0.4,0.6,0.7,1.3,1,2c0.1,0,0.2,0,0.3,0c0.4-0.3,0.6-0.6,0.4-1c-0.1-0.4-0.3-0.8-0.4-1.1c-0.1-0.3-0.3-0.6-0.5-0.9
			c-0.2-0.5-0.6-0.9-0.9-1.4c-0.3-0.3-0.5-0.6-0.7-1c-0.1-0.2-0.3-0.4-0.4-0.5c0-0.1,0-0.2,0-0.4c0-0.1,0-0.2,0-0.3
			c0.1,0.1,0.3,0.3,0.4,0.4c0.2,0.1,0.4,0.4,0.5,0.5s0.1,0.3,0.3,0.5c0.2,0.5,0.6,0.7,1.2,0.8c0.1-0.1,0.2-0.2,0.2-0.3
			c-0.1-0.7-0.3-1.3-0.7-2c-0.2-0.4-0.4-0.7-0.6-1c-0.1-0.1-0.1-0.1-0.1-0.1c-0.4-0.4-0.7-0.8-1.2-1.1c0-0.1,0-0.2,0-0.4
			c0.4,0.4,0.9,0.8,1.3,1.2c0,0,0,0,0,0.1c-0.1,0-0.1,0-0.1,0c0,0.1,0,0.1,0,0.2c0,0,0,0,0.1,0c0,0.1,0.1,0,0.3,0
			c0.2,0.2,0.4,0.5,0.7,0.7c0,0.1,0,0.2,0,0.2c0.1,0.1,0.1,0.1,0.1,0.2c0.2,0.1,0.5,0.1,0.7,0c0,0,0,0,0-0.1c0.1,0,0.1-0.1,0.1-0.1
			c0-0.1,0-0.2-0.1-0.2c-0.1-0.1-0.3-0.4-0.4-0.5c-0.1-0.2-0.3-0.4-0.4-0.5c0.1,0,0.1,0,0.1,0s0,0,0.1,0c0.7-0.4,1.5-0.8,2.3-1.1
			c0.2-0.1,0.3-0.2,0.4-0.2c-0.9,0.5-1.5,1-2,1.7c0.5-0.1,0.9-0.2,1.4-0.3c0.5-0.2,1.1-0.4,1.6-0.5c0.2-0.1,0.4-0.2,0.7-0.2
			c-0.5,0.3-0.9,0.6-1.4,1c-0.1,0.2-0.4,0.4-0.6,0.7c0.1,0.1,0.2,0.2,0.3,0.3c0.7-0.2,1.3-0.4,1.8-0.6c-0.7,0.6-1.4,1.1-2,1.7
			c-0.4,0.4-0.5,0.8-0.3,1.3c0.6-0.2,1-0.4,1.2-0.7c0.2-0.2,0.4-0.4,0.7-0.5c0.1-0.1,0.4-0.2,0.5-0.2l0.3,0.3l0.9-0.3
			c-0.3,0-0.6,0.2-0.9,0.3c-0.9,0.4-1.7,0.9-2.4,1.5c0,0,0,0-0.1,0.1c-0.2,0.2-0.4,0.4-0.6,0.7c0,0.1-0.1,0.1-0.1,0.2
			c0.2,0.1,0.4,0.1,0.5,0c0.3-0.2,0.5-0.4,0.8-0.6c0.4-0.3,0.8-0.5,1.2-0.7c-0.4,0.3-0.7,0.5-1.1,0.8c-0.4,0.4-0.6,0.8-0.9,1.1
			c0.1,0,0.2,0,0.3,0c0.4-0.3,0.7-0.5,1.1-0.7c0.4-0.3,0.8-0.5,1.2-0.7c-0.4,0.3-0.8,0.5-1.1,0.8c-0.5,0.5-0.9,1-1.2,1.5
			c-0.1,0.2-0.2,0.5-0.3,0.7c0.2-0.2,0.4-0.4,0.6-0.5c0.4-0.4,0.7-0.7,1-1c0.4-0.4,1-0.8,1.6-1.2c0.5-0.4,1.1-0.6,1.8-0.9
			c0,0,0,0,0.1,0c0,0,0,0-0.1,0.1c-0.9,0.9-1.9,1.7-2.8,2.6c-0.2,0.2-0.4,0.4-0.6,0.6c0,0.1,0,0.1,0,0.1c-0.4,0.4-0.8,0.8-1.1,1.1
			c0,0-0.1,0.1,0,0.2c0.2,0.1,0.3,0,0.4-0.1c0.1,0,0.1-0.1,0.2-0.2c0.3-0.3,0.6-0.6,1-0.9c0.2-0.2,0.4-0.4,0.6-0.5h0.1
			c-0.4,0.6-0.8,1.1-1.1,1.6c-0.4,0.5-0.7,1-0.9,1.5c-0.1,0-0.1,0-0.1,0.1s0,0.1,0,0.1c-0.1,0.4-0.2,0.8-0.3,1.2
			c0,0.2,0.1,0.3,0.1,0.4c0.1,0.1,0.1,0.1,0.2,0.1l0.4-0.3c0-0.1-0.1-0.1-0.1-0.2c0.1-0.4,0.1-0.8,0.3-1.1c0.2-0.4,0.4-0.8,0.7-1.1
			c-0.1,0.4-0.1,0.7,0,1c0,0.1,0,0.1,0.1,0.1v0.1c0.1,0.1,0.2,0.1,0.4-0.1c0,0,0.1,0,0.1,0.1c0.1-0.1,0.2-0.1,0.4-0.1l0.2-0.3
			c0,0.1-0.1,0.3-0.1,0.3c-0.4,0.8-0.8,1.5-1.4,2c0,0,0,0,0.1,0.1c0.1,0,0.2,0,0.2,0c0.7-0.4,1.3-0.8,1.7-1.2c0,0,0,0,0.1,0
			s0.1-0.1,0.2,0c0.1,0,0.1,0.1,0.3,0.3c-0.4,0.5-0.7,0.9-1.2,1.3c-0.4,0.4-0.8,0.8-1.4,1.1c0.1,0.1,0.2,0.1,0.3,0.2
			c0.2-0.1,0.4-0.2,0.7-0.2c0.3-0.3,0.6-0.5,0.9-0.8c0-0.1,0-0.1,0-0.1c0.2-0.3,0.4-0.5,0.7-0.8c0.1-0.2,0.4-0.4,0.4-0.6
			c0,0,0,0,0.1,0c0.1-0.2,0.2-0.3,0.3-0.5c0.1-0.1,0.1-0.2,0.2-0.3c-0.1,0.3-0.2,0.6-0.3,0.8c-0.1,0.2-0.2,0.5-0.3,0.7
			c-0.1,0.7-0.4,1.3-0.7,2c-0.1,0,0,0.1,0.1,0.1c0.2-0.1,0.4-0.2,0.5-0.3c0.1-0.2,0.4-0.3,0.6-0.5c-0.1,0.4-0.3,0.8-0.4,1.1l0.1,0.1
			l1.1-1.2h0.1c0.1,0.4,0.1,0.7,0.1,1c0,0.5-0.1,1-0.1,1.5c0-0.1,0-0.1,0.1-0.1l0.1-0.1c0.1,0.2,0.3,0.3,0.4,0.5
			c0.1,0.1,0.1,0.1,0.2,0.1c0.1-0.1,0.1-0.2,0.2-0.3v-0.1c-0.1-0.8,0.1-1.5,0.4-2.3c0.1-0.4,0.4-0.7,0.6-1c-0.1,0.4-0.1,0.7-0.3,1.1
			c-0.2,0.8-0.2,1.6-0.1,2.5c0.1,0.2,0.2,0.3,0.4,0.4c0,0.1,0.1,0.1,0.2,0.2c0,0.3,0.1,0.6,0.1,0.9c0,0.1,0.1,0.1,0.1,0.2
			c0.2,0.4,0.5,0.8,0.9,1.3h0.1l0.1-1.2l0.5-0.1l0.1-1.3c0.1,0.4,0.3,0.7,0.4,1c0.6,0.5,1.2,1,1.8,1.5l-1-3.8l0.3,0.2l0.4-0.1
			l-0.4-0.7c0.1-0.1,0.1-0.1,0.1-0.2c0.1-0.1,0-0.2-0.1-0.3c-0.1,0-0.1,0-0.1-0.1l0.9-0.1l-0.5-0.3c-0.9-3.5-1.4-7.1-1.3-10.7h0.1
			h0.1l0,0c-0.1-1.6-0.6-3.1-1.4-4.6l1.3,0.5l-1.4-2.1l0.9,0.7l0.4-0.2c0-0.1,0-0.1,0-0.2c-0.1-0.4-0.4-0.7-0.6-1c0.1,0,0.2,0,0.4,0
			c0.2,0.3,0.4,0.6,0.6,1l0.6,0.1l-0.5-0.6l0.9-1c0-0.1,0-0.2,0-0.2c0.1-0.8,0.4-1.6,0.7-2.3c0.1-0.1,0.1-0.2,0.2-0.3l0.1,0.1
			c0,0.1,0,0.2,0,0.2c-0.1,1-0.1,2.1-0.3,3.1c0.1,0,0.1,0,0.1,0s0,0,0.1,0c0.3-0.2,0.5-0.3,0.8-0.5l-0.5,1.1c-0.1,0.1-0.1,0.1,0,0.1
			h0.1h0.4l1.1-2.2l-0.3,3.6c0.1,0.1,0.1,0.1,0.3,0.2c0,0.1,0.1,0.1,0.2,0.2c0-0.1,0.1-0.1,0.1-0.1l0.8-1c0,0.1,0,0.2,0,0.4
			l-0.3,1.2l0.1,0.1c-0.1,1.2-0.4,2.3-0.8,3.5c-0.1,0-0.1,0-0.1,0.1c0.1,0.2,0.2,0.1,0.4-0.1c0.4-0.6,0.7-1.3,0.9-2
			c0.1-0.5,0.3-0.9,0.4-1.4l0,0c0-0.1,0-0.1,0.1-0.1c0.1-0.1,0.2-0.2,0.4-0.2c0,0.2,0,0.3,0,0.5v0.1v0.2c0.1,0.4,0.1,0.8,0.1,1.2
			c-0.1,0.3-0.2,0.5-0.4,0.7c-0.1,0.1-0.1,0.2-0.1,0.2l0.5,0.2h0.1c0.1,0.8,0.2,1.6,0.2,2.4c0.1,0.1,0.1,0.1,0.1,0.1
			c0.1-0.1,0.2-0.1,0.3-0.1c0.1-0.9,0.2-1.9,0.3-2.8c0-0.2,0-0.4,0-0.6c0-0.1,0-0.1,0-0.2c0,0.2,0.1,0.2,0.2,0.4c0,0,0,0,0,0.1
			s0,0.1,0.1,0.2c0,0.1,0.1,0.3,0.1,0.4l0,0c0,0,0,0.1,0.1,0.1c0,0.1,0,0.3,0.1,0.4c0,0.1,0,0.1,0.1,0.1c0.1,0.5,0.3,0.8,0.4,1.3
			s0.3,1,0.4,1.5c0.1,0,0.1,0.1,0.1,0.1c0.1,0,0.1,0,0.2,0s0.1-0.1,0.1-0.1c0.1-0.1,0.1-0.1,0.1-0.1c-0.1-0.4-0.1-0.7-0.2-1.1
			c-0.1-0.2-0.1-0.3-0.1-0.4v-0.1c0-0.3-0.1-0.5-0.2-0.7l0.1-0.1h0.1c0-0.1,0.1-0.2,0.1-0.2c0,0.1,0,0.2,0.1,0.3V89l0.1,0.1
			c0,0.2,0.1,0.4,0.1,0.6c0,0.1,0,0.2,0,0.3c0,0.1,0,0.1,0.1,0.1c0,0.2,0,0.3,0.1,0.4v0.1c0,0.2,0,0.4,0.1,0.6
			c0.1,0.3,0.1,0.6,0.1,0.9c0,0.1,0.1,0.1,0.1,0.1l0.1-0.1c0.1-0.5,0.1-0.9,0.1-1.4v-0.1c0,0.2,0.1,0.4,0.2,0.5
			c0.1,0.4,0.3,0.6,0.4,0.9c0.1,0.2,0.1,0.3,0.1,0.4c0.3,1.1,0.5,2.2,0.6,3.3c0.1,0.7,0.2,1.4,0.3,2.2c0,0.1,0,0.1,0,0.1
			c0.1-0.1,0.2-0.1,0.3-0.1c0.1-0.8,0.2-1.5,0.1-2.2c-0.1-0.6-0.1-1.1-0.1-1.5c0.1,0.5,0.2,1,0.4,1.5c0,0.1,0,0.2,0.1,0.3
			c0,0.6-0.1,1.2-0.1,1.8c-0.1,0.2-0.1,0.3-0.1,0.5c-0.1,0-0.1,0.1-0.1,0.1s0,0.1-0.1,0.1c0.1,0.1,0.2,0.1,0.2,0.1
			c0.1-0.1,0.2-0.2,0.4-0.3c0-0.2,0.1-0.4,0.1-0.6c0.2,0.6,0.4,1.3,0.4,1.9c0,0.4,0.1,0.7,0.1,1.1c0.1,0.5,0.1,0.9,0.1,1.4
			c0,0,0,0.1,0.1,0.1s0.2-0.1,0.3-0.1c0.1-0.5,0.1-0.9,0.1-1.4v-0.1c0-0.2,0-0.4-0.1-0.6l-0.6-2.8l0.9,2.3c0.4,1.1,0.6,2.2,0.8,3.2
			c0.1,0.8,0.1,1.5,0,2.4c-0.1,0.4,0.1,0.6,0.3,0.6c0.1-0.2,0.1-0.4,0.2-0.6c0.1-0.8,0.2-1.6,0.2-2.4v-0.1c0.4,1.3,0.8,2.7,1,4.1
			c0,0.1,0,0.2,0.1,0.3h0.1c0,0,0,0,0.1-0.1c0,0,0,0,0.1,0c0-0.1,0-0.2,0-0.2c0-0.1,0-0.1,0.1-0.1c0,0.1,0,0.2,0,0.3v0.1
			c-0.1,0.2-0.1,0.3-0.1,0.4c-0.1,0-0.1,0.1-0.1,0.1c0.1,0.1,0.2,0.1,0.3-0.1c0,0,0,0,0.1-0.1c0-0.2,0.1-0.3,0.1-0.5
			c0-0.1,0-0.2,0.1-0.3c0,0.1,0,0.2,0.1,0.3c0,0.2,0,0.3,0.1,0.5c0,0,0,0.1,0,0.2c0.1,0.4,0.1,0.9,0.2,1.3c0.1,0,0.1,0,0.1,0
			c0.1,0,0.1,0,0.2,0c0.1-0.5,0.1-1,0.1-1.4c0.5,0.6,1.1,1.1,1.8,1.6c0,0.1,0,0.1-0.1,0.1l0,0c0.2,0.5,0.5,0.9,0.9,1.3
			c0.1,0,0.1,0.1,0.1,0.1c0.5,0.7,0.9,1.3,1.2,2c0,0,0,0.1,0.1,0.1c0,0.1,0,0.1,0,0.1c0.3,0.4,0.5,0.8,0.6,1.3c0,0.1,0,0.2,0,0.3
			c0.1,0,0.1,0,0.2,0s0.2,0,0.2,0c0.1-0.1,0.1-0.1,0.1-0.1c0-0.1,0.1-0.2,0-0.3c-0.3-1.3-0.8-2.5-1.5-3.6l-0.1-0.1
			c0.7,0.3,1.4,0.7,1.7,1.3c0.4,0.5,0.9,1,1.5,1.4c0.1-0.1,0.1-0.1,0.1-0.1s0,0,0.1-0.1c0.1,0,0.1,0,0.1-0.1s0-0.1,0.1-0.1
			c-0.3-0.4-0.6-0.8-0.9-1.2c-0.3-0.8-0.7-1.6-1.4-2.3c1,0.8,2,1.6,3,2.4c0-0.1,0.1-0.1,0.1-0.1c0.1,0,0.1,0,0.1-0.1
			c-0.2-0.4-0.4-0.8-0.6-1.1l0,0c0-0.1,0-0.1,0-0.1c-0.1-0.1-0.1-0.1-0.1-0.2c-0.1-0.2-0.1-0.3-0.2-0.4c-0.1-0.2-0.3-0.4-0.4-0.6
			s-0.2-0.4-0.4-0.5c-0.4-0.6-0.8-1.1-1.3-1.6c0.9,0.5,1.6,1.1,2.2,1.9c0.1,0.1,0.1,0.1,0.2,0.1s0.1,0,0.1-0.1c0,0,0,0,0.1,0
			c0-0.1,0-0.1,0-0.1c0.1,0,0.1,0,0.1-0.1c-0.1-0.1-0.1-0.1-0.1-0.1c-0.6-0.9-1.4-1.8-2.4-2.6c0-0.1-0.1-0.1-0.1-0.2
			c-0.1-0.2-0.3-0.3-0.4-0.4c0.2,0.2,0.4,0.3,0.7,0.4h0.1c0.3,0.3,0.6,0.5,0.9,0.6c0,0.1,0,0.1,0,0.1c0.1,0.1,0.3,0.1,0.4,0.1
			c0.3,0,0.6,0.1,0.9,0.1c0,0,0,0,0-0.1c0,0,0,0,0.1,0v-0.1c0-0.1,0-0.1-0.1-0.1c-0.1-0.1-0.1-0.1-0.2-0.2c0.1,0,0.1,0,0.1,0
			c0-0.1,0-0.1,0-0.2v0.3c-0.1-0.1-0.2-0.2-0.3-0.2c-0.2-0.3-0.4-0.5-0.7-0.7c-0.1-0.1-0.2-0.1-0.3-0.2c-0.1,0-0.1,0-0.1,0
			c0-0.1,0-0.1-0.1-0.1c-0.4-0.5-0.7-0.9-1.1-1.3c0.9,0.5,1.9,1,3,1.4c0.2-0.1,0.4-0.1,0.4-0.3c-0.8-0.8-1.7-1.6-2.5-2.4
			c-0.5-0.4-0.9-0.8-1.4-1.2c0.4,0.3,0.9,0.5,1.3,0.6c0.1,0,0.2,0.1,0.4,0.1c0.1,0.1,0.1,0.1,0.2,0.1c0.2,0,0.4-0.2,0.4-0.3
			c-0.1-0.2-0.4-0.3-0.5-0.4c-0.1,0-0.1,0-0.1-0.1c0,0-0.1,0-0.1-0.1c-0.7-0.5-1.2-1-1.7-1.6c0.7,0.4,1.4,0.9,2.2,1.3
			c0.1,0,0.1,0,0.1,0.1c0.2,0,0.4-0.1,0.4-0.3c-0.1,0-0.1,0-0.1-0.1c-1.1-0.8-2.2-1.6-3.2-2.4c0-0.1,0-0.1,0-0.1
			c0-0.1,0-0.1-0.1-0.2c0.5,0.3,1,0.4,1.6,0.4c0-0.1,0-0.1,0.1-0.1c0,0,0-0.1,0-0.2c-0.9-0.5-1.6-1.1-2.2-1.8c0.1,0,0.2,0,0.2,0
			c0.1,0.1,0.4,0.2,0.6,0.2c0.4,0.4,1,0.6,1.7,0.6c0.1-0.1,0.1-0.1,0.1-0.1c0.1-0.1,0.1-0.1,0.1-0.2c-0.1-0.2-0.2-0.4-0.3-0.5
			c0.1-0.1,0.1-0.1,0.1-0.1v-0.1c-1-0.7-1.9-1.5-2.9-2.3c0.4,0.2,0.7,0.3,1.1,0.3c0.1,0,0.1,0,0.3,0c0,0,0,0,0.1-0.1c0,0,0,0-0.1,0
			c-0.6-0.4-1.1-0.7-1.6-1c-0.7-0.5-1.4-1-2-1.5c0,0-0.1,0-0.1-0.1c0.4,0.2,0.7,0.3,1.1,0.5c0.6,0.3,0.9,0.5,1.3,0.9
			c0.5,0.4,0.9,0.5,1.4,0.4c-0.4-0.6-1-1.2-1.7-1.8c0.1,0,0.3,0.1,0.4,0.2c0.5,0.5,0.9,0.5,1.4,0.2c-0.3-0.2-0.5-0.4-0.8-0.7
			c0.1-0.1,0.1-0.1,0.1-0.1c0.1-0.1,0.1-0.1,0.1-0.2c-0.3-0.5-0.7-0.9-1.3-1.3c0.2,0,0.3-0.1,0.4-0.3c-0.1-0.2-0.4-0.5-0.7-0.7
			c0.1,0,0.2-0.1,0.3-0.2v-0.1c0-0.1,0-0.1-0.1-0.3c-0.1-0.1-0.2-0.1-0.3-0.2c-0.1-0.2-0.4-0.4-0.6-0.5c0.1-0.1,0.3-0.2,0.4-0.2
			c0-0.1,0-0.1-0.1-0.1c0-0.1,0-0.1,0-0.2c-0.1-0.1-0.1-0.2-0.1-0.3c0.1-0.1,0.1-0.1,0.1-0.1c-0.3-0.7-0.6-1.3-1.1-1.9
			c0.1-0.1,0.3-0.2,0.4-0.3c0,0,0,0,0.1,0c0.4-0.3,0.7-0.6,1-0.8c0-0.1,0.1-0.1,0.1-0.1l1.9-1.5l-1.2,2.3c-0.1,0.4-0.4,0.8-0.5,1.2
			c-0.2,0.5-0.3,1-0.4,1.5c0.1,0.1,0.2,0.2,0.4,0.1c0.1,0,0.3-0.1,0.4-0.2c0-0.1,0-0.2,0.1-0.3c0.1-0.4,0.3-0.7,0.3-1
			c0.2-0.2,0.4-0.3,0.4-0.4l2.7-2.6l0.3,0.1l-2.2,3.7c-0.1,0.2-0.1,0.5-0.2,0.7c-0.1,0.4-0.3,0.6-0.4,0.9l0,0c0,0.2,0.1,0.3,0.1,0.4
			c0.1,0,0.1,0,0.2,0s0.1-0.1,0.1-0.1c0.2-0.4,0.4-0.7,0.6-1.1l2.7-4.6c0,0.3,0,0.6-0.1,0.9c-0.1,0.4-0.3,0.8-0.4,1.1
			c-0.2,0.6-0.5,1.2-0.7,1.9c-0.3,0.6-0.5,1.3-0.7,2c-0.1,0.3-0.1,0.5-0.1,0.8c-0.1,0.3-0.1,0.6-0.1,0.8c0,0.1,0,0.1,0,0.1
			c0,0.1,0.1,0.1,0.1,0.1c0.1,0,0.1,0,0.1-0.1c0,0,0,0,0.1-0.1c0.1-0.3,0.1-0.6,0.2-0.8l1-2.7c0,0.3,0.1,0.5,0.1,0.8
			s0.1,0.6,0.2,0.9h0.1l0.1-0.1c0,0,0,0,0-0.1c0.1-0.1,0.1-0.1,0.1-0.2c0.1,0.1,0.3,0.1,0.4,0l0.1-0.1c-0.1,0.9-0.1,1.9-0.3,2.9
			l0.3,0.2l0.4-0.2l0.1-0.1c0.1,0.4,0.2,0.8,0.2,1.3c0.1,0.4,0,0.8-0.1,1.2c-0.1,0.4-0.1,0.7-0.2,1.1c-0.1,0-0.1,0-0.1,0
			c0.1,0.1,0.2,0.2,0.4,0.2c0.1,0,0.1-0.1,0.1-0.2c0.1-0.2,0.2-0.4,0.3-0.5c0.3-0.6,0.6-1.2,1-1.7c0.1-0.1,0.1-0.2,0.2-0.3
			c0.4-0.5,0.7-1,1.1-1.5c-0.3,0.6-0.6,1.1-0.9,1.6c-0.1,0.1-0.1,0.2-0.1,0.3c-0.1,0.1-0.1,0.1-0.1,0.2c0,0.2,0,0.4,0.1,0.6
			c0.5-0.5,0.9-0.9,1.3-1.3s0.9-0.8,1.3-1.2c0.1-0.2,0.3-0.4,0.5-0.6c-0.1,0.2-0.2,0.4-0.3,0.7c-0.2,0.8-0.5,1.5-0.7,2.2
			s-0.4,1.4-0.5,2.1c0,0,0,0.1,0.1,0.1s0.2-0.1,0.4-0.1c0.1,0,0.1,0,0.2-0.2c0.4-0.4,0.7-0.9,1.1-1.3c-0.1,0.4-0.1,0.8-0.2,1.3H322
			c0,0.1-0.1,0.2-0.1,0.2c0,0.1,0,0.1-0.1,0.2c0,0,0,0-0.1,0.1c0,0,0,0.1-0.1,0.2l0.3,0.3c-0.1,0-0.1,0.1-0.1,0.2c0,0,0,0.1-0.1,0.1
			c0,0.1,0,0.1,0,0.1c-0.1,0.1,0,0.2,0,0.4h0.1c0.1,0,0.2,0,0.2,0c0.6-0.4,1.1-0.8,1.5-1.3c0.4-0.4,0.8-0.8,1.2-1.2
			c-0.3,0.8-0.5,1.6-0.7,2.4c-0.1,0.5-0.1,0.9-0.3,1.4v0.1c-0.1,0.2-0.1,0.5-0.2,0.7h0.6l0.3-0.7l0.4-0.3l-0.6,1.5l0.4,0.2l0.4-0.1
			c0,0,0,0,0.1,0c0.1-0.1,0.2-0.3,0.3-0.4c0.1-0.1,0.2-0.2,0.4-0.2c0,0,0.1,0,0.2,0c0.1,0.4,0.2,0.8,0.2,1.2c0.1,0.5,0.1,1,0.1,1.5
			s0,1,0,1.5c0.1,0.1,0.1,0.1,0.1,0.1c0.1,0,0.1,0,0.2,0c0-0.1,0-0.1,0.1-0.1c0,0,0-0.1,0.1-0.1c0.1-0.3,0.1-0.5,0.2-0.7
			c0.1-0.1,0.1-0.2,0.1-0.3l0.2-0.7l0.2,1c0.1,0.4,0.1,0.8,0.2,1.2c0.2,0.9,0.4,1.7,0.8,2.5c0.1,0.1,0.3,0.1,0.5,0
			c0.1,0,0.1-0.2,0.1-0.3c0-0.1,0-0.1,0-0.2c0-0.3,0-0.5,0-0.7c0-0.4,0-0.7,0-1.1v-0.1c0,0,0,0.1,0.1,0.1c0.1,0.4,0.1,0.8,0.3,1.1
			c0.1,0.1,0.1,0.1,0.1,0.2c0.1,0.2,0.2,0.3,0.2,0.5c0,0.1,0,0.2,0.1,0.2c0.2,0.8,0.7,1.5,1.2,2.1c0.1,0,0.1,0,0.1,0
			c0.1-0.1,0.1-0.1,0.1-0.1c0.1-0.1,0.1-0.3,0.1-0.5c-0.1-0.2-0.1-0.4-0.1-0.5c0.1-0.1,0.1-0.1,0.1-0.1c-0.1-0.2-0.1-0.4-0.2-0.6
			c0-0.5,0-0.9,0-1.2c0-0.8,0-1.5,0.1-2.3c0-0.3,0.1-0.6,0.2-0.9l0.4-0.1c0-0.8,0-1.5,0-2.3c-0.1-1.6-0.5-3.1-1.3-4.6
			c-0.2-0.4-0.4-0.7-0.6-1c-0.4-0.4-0.5-0.9-0.6-1.4l-0.9-0.5l-0.1-0.9c0,0.1,0,0.1,0.1,0.1s0.2,0.1,0.2,0.2
			c0.3,0.2,0.6,0.4,0.7,0.6c0.1,0,0.1,0.1,0.2,0.1s0.1,0,0.2-0.1c0.3-0.4,0.1-0.8-0.3-1.2c-1-0.9-2-1.7-3.1-2.5c0-0.1,0-0.1,0-0.1
			c-0.4-0.3-0.8-0.6-1.2-0.9c0.5,0.3,0.9,0.5,1.4,0.8l0.1,0.1c0.5,0.3,1,0.6,1.5,1c0.4,0.3,0.9,0.7,1.3,1.1c0.1,0.1,0.3,0.2,0.4,0.3
			c0.1,0.1,0.2,0.3,0.4,0.4l0.7-0.1c0.1-0.1,0.1-0.2,0-0.2c-0.6-0.6-1.2-1.1-1.9-1.7c-0.1-0.1-0.1-0.2-0.3-0.3c-1.2-1-2.5-1.8-4-2.5
			c-0.3-0.2-0.5-0.3-0.8-0.5c0.3,0.2,0.6,0.3,0.9,0.4c1.4,0.6,2.7,1.3,4,2.2c0.2,0.2,0.4,0.3,0.6,0.4c0.4,0.3,0.9,0.6,1.6,0.8
			c0.1,0.1,0.3,0.1,0.5,0c0.1,0,0.1,0,0.1,0c-0.1-0.1-0.1-0.2-0.1-0.2c-0.6-0.5-1.3-1-1.9-1.4c-0.6-0.5-1.2-0.9-1.9-1.2
			c0.4,0.2,0.9,0.4,1.2,0.6c0.3,0.2,0.6,0.3,0.9,0.4c0.2,0.1,0.5,0.1,0.9,0.1l-0.2-0.5l0.8,0.1c-0.3-0.2-0.5-0.3-0.7-0.4
			c-0.7-0.5-1.5-0.9-2.3-1.2c-0.5-0.3-1-0.5-1.6-0.7c-0.1-0.1-0.2-0.2-0.4-0.2l2.1,0.7h0.1c-0.5-0.3-1.1-0.6-1.7-0.8
			c-0.5-0.2-1.1-0.4-1.7-0.6c-1.3-0.3-2.4-0.8-3.5-1.2c1.4,0.3,2.9,0.6,4.3,1.1c0.3,0.1,0.7,0.3,1,0.4c0.7,0.3,1.4,0.5,2.1,0.6
			l0.1-0.1c0-0.1-0.1-0.2-0.1-0.2c-0.8-0.6-1.7-1.1-2.6-1.5s-1.8-0.8-2.7-1.2c-0.7-0.2-1.4-0.4-2.2-0.6c0.8,0.1,1.5,0.3,2.2,0.5
			c0.6,0.1,1,0.3,1.5,0.4c0.1,0.1,0.4,0.2,0.6,0.2c0.3,0.2,0.6,0.3,0.9,0.4c0.5,0.2,0.9,0.4,1.4,0.6c0.1,0,0.4,0,0.7,0
			c0.1-0.1,0.2-0.1,0.4-0.2c-0.7-0.5-1.5-0.9-2.2-1.3c-0.4-0.3-0.8-0.5-1.2-0.8h0.1c0-0.1,0.1-0.2,0.1-0.2c0.1-0.1,0.1-0.1,0-0.2
			c0-0.1,0-0.1-0.1-0.1l-5.8-1.9c1.9,0.4,3.6,0.9,5.2,1.5c0.2,0.1,0.5,0.2,0.6,0.3c0.9,0.3,1.7,0.5,2.7,0.6c0-0.1,0.1-0.2,0-0.2
			c-0.5-0.5-1.1-0.9-1.7-1.2c-0.2-0.1-0.4-0.2-0.6-0.3c-0.1-0.1-0.1-0.1-0.1-0.1c-0.5-0.3-1-0.5-1.5-0.6c-1.1-0.5-2.2-0.9-3.3-1.3
			c-0.1,0-0.1,0-0.1,0c-0.1,0-0.2-0.1-0.3-0.1c-0.4-0.1-0.7-0.3-1-0.3c-0.4-0.1-0.8-0.1-1.2-0.2c0.8,0.2,1.6,0.3,2.2,0.4
			c0.1,0,0.2,0,0.4,0c1.3,0.3,2.7,0.5,4,0.8c0.4,0.1,0.7,0.2,1,0.2c0.1,0,0.1,0,0.1-0.1c0,0,0,0,0-0.1c-0.3-0.3-0.7-0.6-1.2-0.8
			c-0.1-0.1-0.3-0.2-0.4-0.3c-0.2-0.1-0.4-0.2-0.6-0.2c-0.1-0.1-0.3-0.2-0.4-0.2l1.7-0.1c0-0.1,0-0.1-0.1-0.2
			c-0.4-0.2-0.9-0.4-1.3-0.5c-0.5-0.2-1-0.3-1.6-0.4c-0.7-0.1-1.6-0.2-2.3-0.3c-0.9-0.1-1.7-0.2-2.4-0.3c-0.1,0-0.1,0-0.1,0
			c-1-0.1-2-0.2-3.1-0.4c1.3-0.1,2.6-0.1,4-0.2c0.9,0,1.8,0.1,2.7,0.2c0.3,0,0.5,0.1,0.7,0.1c0.8,0.2,1.5,0.4,2.2,0.5c0,0,0,0,0.1,0
			c0.2,0.1,0.4,0.1,0.5,0c-0.1,0-0.2-0.1-0.3-0.2c-0.1-0.1-0.1-0.1-0.2-0.1c-0.9-0.3-1.9-0.6-2.9-0.8c-0.1,0-0.1,0-0.1,0
			c-0.7-0.2-1.4-0.2-2.1-0.3c0.7-0.2,1.4-0.2,2.1-0.2c0.1,0,0.1,0,0.1,0c0.6,0,1.2,0,1.7,0c0.1,0,0.1,0,0.1,0
			c0.4,0.1,0.7,0.1,1.2,0.1c0.1,0,0.2,0,0.4,0.1c0.1,0,0.3,0,0.5,0c0,0,0-0.1,0.1-0.1c0,0,0,0,0-0.1c-0.2,0-0.4-0.1-0.6-0.1
			c-0.2-0.1-0.4-0.1-0.6-0.2c-0.3,0-0.5-0.1-0.7-0.1c-0.1-0.1-0.1-0.1-0.1-0.1c-0.2,0-0.4-0.1-0.6-0.1h0.1l1-0.1
			c0.1-0.1,0.1-0.1,0.2-0.1c-0.1-0.1-0.3-0.1-0.4-0.2c-0.4-0.1-0.8-0.2-1.2-0.3c-1.4-0.1-2.7-0.2-4-0.2c-0.3,0.1-0.7,0.1-0.9,0.1
			c0.1,0,0.1-0.1,0.1-0.1c0-0.1,0-0.1,0.1-0.1c0-0.1,0-0.2,0-0.3c0-0.1,0-0.1-0.1-0.1h-0.1c-0.3-0.1-0.6-0.1-0.9-0.1
			c0.1-0.1,0.2-0.2,0.3-0.2l0.6,0.1c0.1-0.1,0.2-0.1,0.4-0.2c0.8-0.1,1.6-0.3,2.5-0.3l-0.6-0.2l2.5-0.4l-5.3,0.1
			c-0.4,0.1-0.8,0.2-1.2,0.2c-0.5,0.1-1,0.2-1.5,0.3c-0.9,0-1.9,0-2.8,0l-0.1-0.1c-0.2,0-0.4,0-0.6,0.1c-0.4-0.1-0.7-0.1-1.1-0.1
			c0.6-0.1,1.1-0.2,1.6-0.3h0.1c0.9-0.2,1.9-0.3,2.8-0.4c0.3,0,0.5,0,0.7,0l6.3-0.3c-0.2-0.1-0.5-0.2-0.7-0.2
			c-0.6-0.2-1.4-0.2-2.2-0.3c-1.4,0.1-2.8,0.2-4.3,0.4c-0.3,0-0.6,0.1-0.9,0.1c-0.6,0.1-1.3,0.2-2,0.3c-0.2,0-0.4,0.1-0.6,0.1
			c-0.2,0.1-0.4,0.1-0.7,0.2c-0.1,0-0.3,0.1-0.4,0.1c-0.4,0.1-0.9,0.1-1.2,0.3c0.4-0.2,0.9-0.5,1.4-0.7c0.2-0.1,0.5-0.2,0.7-0.3
			c0.4-0.1,0.8-0.3,1.1-0.4c1.4-0.5,2.9-0.9,4.5-1.2c0.4-0.1,0.6-0.1,1-0.2c0.1,0,0.1,0,0.2,0s0.1-0.1,0.1-0.1
			c-0.1-0.2-0.2-0.3-0.4-0.3c-0.9,0.1-1.9,0.1-2.8,0.1c-0.7,0-1.4,0-2.2-0.1c0.7-0.1,1.4-0.2,2.2-0.3c0.4-0.1,0.9-0.2,1.3-0.3
			c-0.2-0.1-0.5-0.2-0.9-0.3c-0.1,0.1-0.4,0.1-0.4,0.1c-0.8,0.1-1.5,0.2-2.2,0.4H312c-0.4,0.1-0.8,0.2-1.2,0.3
			c0.2-0.2,0.4-0.3,0.6-0.4c0.1-0.1,0.2-0.1,0.4-0.1l0,0c0.7-0.3,1.2-0.5,1.9-0.6c0,0.1,0.1,0.1,0.1,0.2c0.1,0,0.1,0,0.2,0.1
			c0.1-0.2,0.3-0.4,0.4-0.6c0.3-0.8,0.6-1.6,0.8-2.5c0.1-0.3,0.1-0.5,0.3-0.7c0.1,0.2,0.1,0.5,0.1,0.7c0,0.3,0.1,0.6,0.1,0.8h0.1
			h0.1l0.6-1.8l0.6,3.6l0.7,0.1l0.1-2.4l0.3,0.9c0.1,0,0.2,0.1,0.4,0.1c0.1,0,0.1-0.1,0.2-0.1l0.1-2c0.2,0.6,0.4,1.1,0.6,1.7
			c0,0.1,0,0.2,0.1,0.3c0.2,1,0.7,2,1.4,2.8c0.4-0.1,0.6-0.3,0.5-0.7c-0.4-1.4-0.5-2.8-0.6-4.2c0-0.1,0-0.3,0-0.4l0.4,0.4
			c0.1,0.9,0.4,1.8,0.8,2.7c0,0,0,0,0,0.1c0.1,0.2,0.1,0.4,0.2,0.6c0.2,0.4,0.4,0.8,0.7,1.2c0.1,0.1,0.1,0.1,0.1,0.1
			c0.1-0.1,0.2-0.1,0.3-0.1v-0.1c0.1-0.1,0.1-0.1,0.1-0.2c-0.1-0.6-0.4-1.2-0.4-1.7c-0.1-0.6-0.3-1.2-0.3-1.8
			c0.2,0.6,0.4,1.2,0.6,1.8c0.2,0.6,0.4,1.1,0.6,1.7c0.1,0.1,0.1,0.3,0.1,0.4c0.1,0.1,0.1,0.2,0.1,0.3c0.1,0.1,0.1,0.1,0.1,0.2
			c0.2,0,0.3-0.1,0.2-0.3c0-0.1,0-0.2,0-0.2c-0.2-1.4-0.3-2.8-0.1-4.2v-0.1l0.1,0.1c0.3,1,0.6,2,1.1,2.9c0.1,0,0.1,0.1,0.1,0.2
			c0.4,0.7,0.7,1.2,0.9,1.5c0.1,0,0.1-0.1,0.2-0.2c0-0.1,0.1-0.2,0-0.4c-0.1-0.4-0.1-0.8-0.3-1.2c0-0.1,0-0.1,0-0.2
			c-0.2-0.8-0.4-1.7-0.4-2.6c0-0.2,0-0.4-0.1-0.6c0.1,0.2,0.1,0.3,0.2,0.5c0,0,0,0,0,0.1c0.2,0.8,0.4,1.6,0.7,2.5
			c0.1,0.5,0.3,1,0.6,1.5c0.1,0,0.1,0.1,0.2,0.1l0.4-0.2l0.3-3.2l0.5,2.7l0.6,0.4c0,0.1,0,0.1,0,0.2c0.1,0.3,0.2,0.6,0.4,0.9
			c0,0.1,0.1,0.2,0.1,0.2c0.1,0,0.1,0,0.2,0s0.1,0.1,0.1,0.1c0.1,0,0.1,0.1,0.1,0.2c0.1,0,0.1,0,0.1,0.1s0,0.2,0.1,0.3
			c0.1-0.1,0.1-0.2,0.1-0.2c0.1-0.5,0.1-1,0.1-1.5c0-0.3,0-0.5,0-0.7c-0.1-0.5-0.1-1,0-1.6c0.1,0.6,0.1,1.1,0.2,1.6
			c0,0.3,0,0.5,0,0.7s0,0.5,0,0.7l0.4,0.1l0.4-0.9c0.1,0.1,0.1,0.2,0.2,0.3c0,0.2,0.1,0.4,0.2,0.6c0.1,0,0.1,0,0.2,0.1
			c0.1,0,0.1,0,0.1-0.1c0.1,0,0.1,0,0.1,0c0.1-0.2,0.1-0.4,0.1-0.6v-0.1v-0.1l0.4,0.3c0.2,0.6,0.4,1.2,0.7,1.9
			c0.1,0.1,0.1,0.2,0.1,0.3c0.1,0.1,0.1,0.2,0.2,0.2l0.1-0.1c0.1-0.2,0.1-0.4,0.1-0.5c0-0.7,0-1.3,0-2c0-0.1,0-0.3,0-0.5
			c0.1,0.2,0.1,0.3,0.1,0.5c0.1,0.7,0.4,1.3,0.7,1.9c0.1,0.1,0.1,0.1,0.3,0.2c0-0.1,0.1-0.1,0.1-0.1c0.1-0.1,0.1-0.1,0.1-0.1
			c0,0.8,0,1.5,0,2.4c0.1,0.1,0.2,0.1,0.3,0.1c0.1,0,0.1,0,0.2,0s0.1,0,0.1,0c0.1,0,0.1,0,0.1,0h0.1c0,0,0,0,0-0.1
			c0.1-0.5,0.1-1,0.1-1.4c0.2,0.6,0.5,1.1,0.9,1.7c0.2,0.4,0.6,0.6,1.1,0.5c0.2-0.3,0.2-0.5,0.3-0.7c0-0.4,0.1-0.7,0.1-1.1
			c0.1,0.3,0.4,0.6,0.6,0.9c0.1,0,0.3,0,0.5-0.1c-0.2-0.2-0.3-0.5-0.4-0.7c0-0.1-0.1-0.2-0.1-0.2c-0.1-0.3-0.3-0.6-0.4-0.8
			c0.1-0.2,0.1-0.4,0.1-0.5c0.3,0.5,0.6,0.9,0.8,1.4c0.1,0.2,0.2,0.3,0.3,0.4c0.1,0,0.1,0.1,0.3,0.1l0.1-0.6
			C341.1,68.4,340.9,67,340.3,65.8z M231.6,36.7L231.6,36.7c0.1,0,0.1,0,0.3,0C231.8,36.7,231.7,36.7,231.6,36.7z M242.4,47
			l-1.1,0.1l1.4-3.7L242.4,47z M244.8,46.6l-0.5,0.1l0.8-2.2L244.8,46.6z M205,79.3l3.5-4.7l-0.9,3.6L205,79.3z M208.2,78
			c0.1-0.6,0.1-1.1,0.3-1.6c0.1-0.5,0.4-0.9,0.6-1.4c0.1-0.3,0.2-0.6,0.4-0.9l0.1,3.4L208.2,78z M210.4,77.1
			c-0.1-1.7,0.4-3.5,1.2-5.2c0.1-0.1,0.1-0.1,0.1-0.2l0.3,4.2l0.3,0.2L210.4,77.1z M212.7,75.8l0.4-3.5l0.4,2.5l0.1,0.6L212.7,75.8z
			 M215.8,74l-1.3,0.8l0.2-4.3L215.8,74L215.8,74z M216.2,73.8v-3l1.1,2.4L216.2,73.8z M219.9,71.2v-0.5l0.5-2.9l0.7,2.8L219.9,71.2
			z M222.5,70v-3.4l0.1,0.7l0.4,0.2l1.1,2L222.5,70z M226.1,68.7l-0.7,0.3l-0.2-2.5L226.1,68.7L226.1,68.7z M225.4,65l0.5-0.1
			l0.3,2.3L225.4,65z M227,68.5l-0.5-3.4l1.2,3.1L227,68.5z M229.3,67.7l0.2-3.6l1.1,2.9l0.3,0.4L229.3,67.7z M231.1,75.1
			C231,75.2,231,75.2,231.1,75.1c-0.1,0.1-0.1,0.2-0.1,0.2c0,0.1,0,0.1,0,0.1l0.1,0.1l-0.8,0.4l0.4,0.4l-1.2,0.6l0.9-4.8
			c0.8,0.9,0.9,1.9,0.4,2.8L231.1,75.1z M233.6,66.8l-0.2-2.1l0.9,1.9L233.6,66.8z M235.3,66.2v-2.7l1.1,2.1L235.3,66.2z
			 M240.5,64.4l-0.7-2.3l1.2,2.2L240.5,64.4z M242.4,64l-0.6-2.6l1.6,2.4L242.4,64z M243.5,72.9l-0.1-0.1L243.5,72.9L243.5,72.9z
			 M245.4,63.4l-0.4-3.1l2.1,2.8L245.4,63.4z M247.5,63l-0.1-1.3l0.7,1.2L247.5,63z M256,53.5l0.4,0.5l-0.6,0.3L256,53.5z M253,52.1
			l0.5,0.7l-0.9,0.1l-0.1-0.9L253,52.1z M254.3,53.6c0.1,0.3,0.2,0.5,0.4,0.7c0.1,0,0.1,0,0.1,0.1c0.1,0.2,0.1,0.4,0.1,0.6
			c-0.1,0.1-0.1,0.2-0.1,0.3c-0.1,0.1-0.1,0.3-0.3,0.4c-0.1-0.2-0.3-0.4-0.4-0.6c-0.3-0.4-0.7-0.5-1.3-0.4l-1.2-0.8L254.3,53.6z
			 M252,62.4l-0.5,0.1l-0.9-2.2l2.5,1.9L252,62.4z M254.6,61.9l-1.1-1.8l1.9,1.7L254.6,61.9z M256.5,61.6l-1.4-2.1
			c-0.1-0.1-0.1-0.1-0.1-0.1v-0.1c0.1,0.1,0.2,0.1,0.4,0.2l2.4,1.8L256.5,61.6z M258.7,56.2l-0.3-0.2c-0.1,0-0.4,0-0.5,0
			c-0.2-0.1-0.4-0.2-0.6-0.3c-0.4-0.3-0.9-0.6-1.3-0.8l0.7-0.5l1,0.8l0.4-2l0.6,1.6l0.5-0.1l1.5,0.6l-0.4,0.3l0.1,0.4
			c0.6,0.1,1.3,0.1,1.9,0.2l1.8,0.9C262.4,56.8,260.6,56.4,258.7,56.2z M261.5,61.3c-0.2,0-0.3-0.2-0.4-0.3
			c-0.3-0.3-0.5-0.6-0.7-0.9l-0.7-1.1l2.2,2.3C261.7,61.4,261.6,61.4,261.5,61.3z M263,61.2l-1.7-1.9c0.8,0.2,1.6,0.5,2.5,0.7
			c0,0.1,0.1,0.1,0.1,0.1l1.3,1L263,61.2z M279.2,162.4h-0.1C279.1,162.4,279.1,162.3,279.2,162.4
			C279.2,162.3,279.2,162.3,279.2,162.4z M277.6,73.8c-0.4,0.2-0.8,0.5-1.1,0.7c-0.3-0.6-0.6-1.2-0.8-1.8c-0.1-0.2-0.2-0.4-0.2-0.5
			c0.1-0.1,0.2-0.1,0.3-0.1c0,0,0,0,0.1,0c0.1,0.1,0.1,0.2,0.3,0.3C276.7,72.9,277.2,73.4,277.6,73.8z M275.9,75.7
			c0.1,0.2,0.3,0.3,0.4,0.5c0.1,0,0.1,0.1,0.1,0.2c-0.4,0.3-0.6,0.5-0.8,0.7c-0.4-0.5-0.7-1-1-1.6c0-0.4,0.1-0.8,0.1-1.2
			c0.2,0.3,0.4,0.5,0.6,0.7c0.1,0.2,0.2,0.3,0.3,0.4c0,0.1-0.1,0.2-0.1,0.3C275.7,75.7,275.8,75.7,275.9,75.7z M275,77.3L275,77.3
			c0.1,0.1,0.1,0.1,0.2,0.1c0.1,0.2,0.2,0.3,0.4,0.5l-0.3,0.1c-0.1-0.4-0.3-0.7-0.4-1C274.9,77.2,275,77.3,275,77.3z M275.9,78.4
			L275.9,78.4c-0.1,0.2-0.3,0.3-0.4,0.4c-0.1-0.1-0.1-0.3-0.1-0.4H275.9z M275.9,77.2c0-0.1,0.1-0.1,0.1-0.1
			c0.7-0.4,1.2-0.6,1.6-0.7c0.1-0.1,0.2-0.1,0.3-0.1l-1.7,1.1C276.1,77.4,276,77.3,275.9,77.2z M277.2,75.7l-0.1,0.1
			c-0.1-0.2-0.1-0.3-0.1-0.4h0.1c0.1-0.1,0.1-0.1,0.1-0.1c0.2-0.1,0.4-0.2,0.6-0.3c0.1,0,0.2,0,0.2,0
			C277.8,75.2,277.5,75.4,277.2,75.7z M274.9,52.3c0-0.2,0.1-0.3,0.1-0.4c0.1-0.1,0.3-0.2,0.4-0.3c0.1,0.2,0.3,0.4,0.5,0.5
			c0,0.1,0,0.2,0.1,0.3c0,0,0,0,0,0.1c0.1,0.1,0.1,0.3,0.1,0.3c0.1,0.3,0.1,0.6-0.1,0.9c-0.1,0.2-0.2,0.4-0.5,0.5
			c-0.1,0.2-0.1,0.4,0,0.5c-0.1,0.1-0.1,0.3-0.2,0.4c-0.2,0.3-0.4,0.6-0.5,0.9c-0.1,0-0.1,0.1-0.1,0.1
			C274.7,54.8,274.7,53.5,274.9,52.3z M276,85.4c-0.4-0.7-0.8-1.4-1.2-2.2c0,0,0,0,0-0.1l0,0c-0.1-0.1-0.1-0.1-0.1-0.1s0,0,0-0.1
			c-0.1-0.2-0.1-0.3-0.1-0.4c0.1,0,0.1,0.1,0.1,0.2c0.4,0,0.7-0.1,0.8-0.2c0.1,0.2,0.2,0.3,0.4,0.5c0.3,0.5,0.7,0.7,1.3,0.7
			c0.1,0,0.1-0.1,0.1-0.1c-0.1-0.1-0.1-0.3-0.2-0.3c0-0.1,0.1-0.1,0.1-0.1c0.4-0.1,0.7-0.3,1.1-0.4C277.6,83.7,276.9,84.6,276,85.4z
			 M276.7,82.7c-0.2-0.3-0.4-0.7-0.6-1c0.1-0.5,0-0.9-0.1-1.3s-0.2-0.7-0.4-1.1h0.1l0.9-0.2c0.3,0.3,0.6,0.5,1,0.7l-0.6,0.4l0.4,0.3
			l1.7-0.4C277.8,80.7,277,81.6,276.7,82.7z M278,79.6c-0.1-0.3-0.4-0.5-0.5-0.7l2.2-0.5L278,79.6z M284.6,58.7l-7.1,1.6l-0.1-0.4
			l-0.5-0.1c-0.1-0.1-0.2-0.1-0.3-0.1c0.2-1.1,0.5-2.1,0.9-3.1c0.4,0.5,0.6,1,0.7,1.6c0,0.2,0.1,0.3,0.2,0.4
			c0.1,0.1,0.1,0.2,0.2,0.3c0.1-0.1,0.1-0.1,0.1-0.1c0.1-0.2,0.1-0.5,0.3-1.1l0.5-2.3v2.3l0.6,0.7l0.4,0.2l0.2-1.3
			c0.1,0,0.1,0,0.2,0.1c0.1-0.1,0.1-0.1,0.1-0.1c0.1-0.1,0.2-0.3,0.3-0.5c0.4-0.8,0.6-1.5,0.6-2.4c0,0.9,0,1.7-0.1,2.6
			c0,0.1,0,0.1,0,0.1c0,0.2-0.1,0.4-0.1,0.7s0.1,0.4,0.4,0.3c0,0,0,0,0-0.1c0.1,0,0.1-0.1,0.1-0.2c0.1-0.3,0.2-0.5,0.4-0.7
			c0-0.1,0-0.1,0-0.1c0.2-0.6,0.4-1.1,0.6-1.7c0.1,0.9,0.1,1.8,0.1,2.6c0,0.2,0,0.3,0,0.5c0,0.1,0.1,0.1,0.2,0.1c0,0,0,0,0.1,0
			l0.1-0.1c0.1-0.2,0.1-0.3,0.2-0.5c0.1-0.9,0.1-1.8,0.1-2.6l0,0c-0.1-0.2-0.1-0.4-0.1-0.6c0.1,0.3,0.1,0.6,0.3,0.9
			c0.1,0.5,0.4,1,0.6,1.5c0.1,0.1,0.1,0.1,0.3,0c0.1-0.1,0.1-0.1,0.1-0.1c0,0.4,0,0.7,0.1,1.1c0,0,0,0.1,0.1,0.1
			C285.2,58.5,284.9,58.5,284.6,58.7z M286.1,58.2v-1.1l0.9,0.6l0.3-0.7c0.2,0.2,0.4,0.3,0.7,0.4v-0.1l0.1-1l0.4,0.4l0.1,0.7
			C287.8,57.7,287,57.9,286.1,58.2z M290.7,80.6c-0.1,0.2-0.2,0.5-0.3,0.6l-0.5,1.1l-0.3-0.4v-0.1c-0.1-0.1-0.1-0.2-0.1-0.2
			c-0.1-0.5-0.4-1-0.6-1.5l0.1-0.3c0.1,0,0.3-0.1,0.4-0.1c0.1-0.1,0.1-0.1,0.1-0.1c0-0.1,0-0.2,0.1-0.3c0.1,0,0.1,0,0.2-0.1l0,0
			c0.1-0.3,0.2-0.6,0.4-0.9l0.4-0.2l0.1-0.3c-0.1,0.5-0.1,0.9-0.3,1.4c-0.1,0.4-0.1,0.7-0.2,1.1h0.5V80.6z M316.9,74.7
			c1,0.1,2,0.3,3,0.5s1.9,0.4,2.9,0.6l-8.2-1.2C315.4,74.6,316.1,74.7,316.9,74.7z M305.6,63c0.2-0.4,0.3-0.7,0.4-1
			c0.4,0.1,0.7-0.1,0.9-0.4c-0.1,0.2-0.1,0.5-0.2,0.7c0,0.1,0,0.1,0,0.1l-0.3,1l-1.4,0.9L305.6,63z M303.3,65.5
			c-0.1-0.3-0.4-0.4-0.7-0.5c0-0.1,0-0.1,0.1-0.2c0.2-0.7,0.4-1.4,0.4-2.1c0-0.2,0.1-0.4,0.2-0.6c0.1-0.2,0.2-0.4,0.4-0.6
			c0-0.1,0.1-0.1,0.2-0.2c-0.1,0.2-0.1,0.4-0.1,0.6c0.1,0.1,0.2,0.1,0.3,0l0.1-0.1c-0.4,0.8-0.6,1.5-0.5,2.3c-0.1,0.1-0.1,0.1,0,0.1
			c0,0.1,0,0.2,0,0.4h0.1c0.1,0,0.1,0,0.2-0.1c0-0.1,0.1-0.1,0.1-0.2s0-0.1,0-0.2c0.2-0.5,0.4-1.1,0.7-1.6c-0.1,0.4-0.2,0.7-0.1,1.1
			v0.6v0.1c-0.1,0.1-0.4,0.4-1,0.7C303.6,65.2,303.4,65.4,303.3,65.5z M304.3,77.1l-0.5-1l1.2-0.9c0.1,0.2,0.4,0.2,0.7,0
			c0.1,0,0.1,0,0.2,0L304.3,77.1z M309.4,82.8c-0.4,0.4-0.8,0.8-1.1,1.1c-0.4-0.5-1-0.9-1.6-1.3c0.3,0.1,0.6,0.2,0.9,0.2
			c0.1,0,0.1,0,0.1,0c0.1,0,0.1,0,0.1,0c0.1-0.1,0.1-0.1,0.1-0.2c-0.1-0.1-0.1-0.1-0.1-0.2c-0.4-0.7-0.9-1.3-1.6-1.9
			c0.1,0,0.1,0,0.1,0l0.4-0.2l0.4,0.1l4.2-2.9l-3.1,4.3c-0.1,0.2-0.2,0.4-0.4,0.6c-0.1,0.1-0.1,0.1-0.1,0.1l0,0
			c0.2,0.2,0.4,0.2,0.6,0.1c0.1-0.1,0.3-0.2,0.4-0.3c0.8-0.7,1.6-1.3,2.4-1.9c0.8-0.5,1.6-1,2.4-1.5L309.4,82.8z M309.8,75.9
			c0.4-0.3,0.9-0.4,1.4-0.3c-1.1,0.7-2,1.5-3,2.4c-0.3,0.3-0.6,0.7-0.9,1c-0.2,0.3-0.5,0.6-0.7,1l-0.6-0.8c0.1-0.1,0.1-0.2,0.2-0.2
			c0.4-0.4,0.7-0.7,1.1-1C308.2,77.2,309,76.5,309.8,75.9z M309.2,74.9l-3.7,3.6l-0.9-1l2-1.4L307,76L309.2,74.9z M313,65.3
			c-2.7,0.3-5.3,0.8-7.7,1.7c-0.3,0.1-0.6,0.2-0.8,0.3c0.1-0.2,0.1-0.3,0.3-0.5c0.6-0.9,1.4-1.7,2.4-2.4c0.4-0.3,0.9-0.6,1.4-0.8
			c0.3-0.2,0.7-0.2,1-0.3c-0.1,0.1-0.1,0.2-0.1,0.3c0,0,0,0,0,0.1c0,0.2,0.1,0.3,0.1,0.5l0.1,0.1l0.1-0.1c0-0.1,0-0.1,0-0.1
			c0.1,0,0.1-0.1,0.1-0.1v0.1c0,0.3-0.1,0.7-0.1,1c0-0.1,0.1-0.1,0.1-0.2c0.3-0.4,0.5-0.7,0.8-1.1c0.4-0.5,0.7-1,1-1.4
			c0.1,0.4,0.3,0.7,0.4,1.1c0.2,0.6,0.6,1,1,1.4C313.1,65.2,313.1,65.2,313,65.3z"/>
		<g>
			<path class="st0" d="M284.2,169c0,0.9-3.7,1.6-8.2,1.6s-8.2-0.7-8.2-1.6c0-0.9,3.7-1.6,8.2-1.6S284.2,168.2,284.2,169z"/>
			<path class="st0" d="M280.6,171.1c0,0.6-3.6,1.1-8,1.1s-8-0.5-8-1.1s3.6-1.1,8-1.1C277,169.9,280.6,170.4,280.6,171.1z"/>
			<path class="st0" d="M282,174.1c0,0.7-3,1.3-6.6,1.3s-6.6-0.6-6.6-1.3s2.9-1.3,6.6-1.3C279,172.8,282,173.4,282,174.1z"/>
			<path class="st0" d="M198,211.3c0,0.5-4.3,0.9-9.7,0.9c-5.3,0-9.7-0.4-9.7-0.9s4.3-0.9,9.7-0.9C193.7,210.4,198,210.8,198,211.3z
				"/>
			<path class="st0" d="M235.8,212.8c0,0.4-3.1,0.7-7,0.7c-3.8,0-7-0.3-7-0.7s3.1-0.7,7-0.7S235.8,212.4,235.8,212.8z"/>
			<path class="st0" d="M276.8,202.7c0,0.5-3,0.8-6.6,0.8s-6.6-0.4-6.6-0.8c0-0.5,2.9-0.8,6.6-0.8
				C273.8,201.8,276.8,202.2,276.8,202.7z"/>
			<path class="st0" d="M322.8,203c0,0.5-3,0.8-6.6,0.8s-6.6-0.4-6.6-0.8c0-0.5,2.9-0.8,6.6-0.8S322.8,202.6,322.8,203z"/>
			<path class="st0" d="M238.4,204.3c0,0.7-4.8,1.3-10.7,1.3S217,205,217,204.3s4.8-1.3,10.7-1.3
				C233.6,202.9,238.4,203.5,238.4,204.3z"/>
			<path class="st0" d="M217.6,212.8c0,0.2-2.3,0.4-5.1,0.4s-5.1-0.2-5.1-0.4s2.3-0.4,5.1-0.4C215.3,212.4,217.6,212.6,217.6,212.8z
				"/>
			<path class="st0" d="M220.3,201c0,0.2-2.3,0.4-5.1,0.4s-5.1-0.2-5.1-0.4s2.3-0.4,5.1-0.4S220.3,200.8,220.3,201z"/>
			<path class="st0" d="M345.5,206.1c0,0.2-2.3,0.4-5.1,0.4c-2.8,0-5.1-0.2-5.1-0.4s2.3-0.4,5.1-0.4
				C343.2,205.7,345.5,205.9,345.5,206.1z"/>
			<path class="st0" d="M336.2,224.3c0,0.2-1.9,0.4-4.3,0.4s-4.3-0.2-4.3-0.4s1.9-0.4,4.3-0.4C334.3,223.9,336.2,224.1,336.2,224.3z
				"/>
			<path class="st0" d="M289.8,219.1c0,0.3-1.9,0.5-4.3,0.5s-4.3-0.2-4.3-0.5s1.9-0.5,4.3-0.5S289.8,218.8,289.8,219.1z"/>
			<path class="st0" d="M264.7,221.4c0,0.3-1.3,0.5-2.9,0.5s-2.9-0.2-2.9-0.5s1.3-0.5,2.9-0.5C263.4,220.9,264.7,221.1,264.7,221.4z
				"/>
			<path class="st0" d="M241.3,222c0,0.3-1.9,0.6-4.3,0.6c-2.4,0-4.3-0.3-4.3-0.6s1.9-0.6,4.3-0.6
				C239.4,221.4,241.3,221.6,241.3,222z"/>
			<path class="st0" d="M256,224.1c0,0.2-1.1,0.4-2.5,0.4s-2.5-0.2-2.5-0.4s1.1-0.4,2.5-0.4C254.9,223.7,256,223.9,256,224.1z"/>
			<path class="st0" d="M320.8,208.1c0,0.1-1.1,0.2-2.5,0.2s-2.5-0.1-2.5-0.2c0-0.1,1.1-0.2,2.5-0.2
				C319.7,207.9,320.8,208,320.8,208.1z"/>
			<path class="st0" d="M324,213.7c0,0.1-1.1,0.2-2.5,0.2s-2.5-0.1-2.5-0.2c0-0.1,1.1-0.2,2.5-0.2S324,213.6,324,213.7z"/>
			<path class="st0" d="M280.3,208.9c0,1-4.8,1.9-10.7,1.9c-5.9,0-10.7-0.8-10.7-1.9c0-1,4.8-1.9,10.7-1.9
				C275.6,207,280.3,207.8,280.3,208.9z"/>
			<path class="st0" d="M317.9,212.3c0,0.5-3.7,0.8-8.2,0.8s-8.2-0.4-8.2-0.8c0-0.5,3.7-0.8,8.2-0.8
				C314.2,211.4,317.9,211.8,317.9,212.3z"/>
			<path class="st0" d="M315.6,217c0,0.6-4.8,1.1-10.8,1.1c-5.9,0-10.7-0.5-10.7-1.1s4.8-1.1,10.7-1.1
				C310.7,215.9,315.6,216.4,315.6,217z"/>
			<path class="st0" d="M254.1,208.9c0,1-7.2,1.7-16,1.7c-8.9,0-16-0.8-16-1.7c0-1,7.2-1.7,16-1.7
				C246.9,207.2,254.1,207.9,254.1,208.9z"/>
			<path class="st0" d="M290.5,225.4c0,1-7.3,1.8-16.3,1.8s-16.3-0.8-16.3-1.8s7.3-1.8,16.3-1.8
				C283.2,223.7,290.5,224.5,290.5,225.4z"/>
			<path class="st0" d="M314.6,208.9c0,1.1-7.2,2-16,2c-8.9,0-16-0.9-16-2s7.2-2,16-2S314.6,207.8,314.6,208.9z"/>
			<path class="st0" d="M255.5,219.1c0,0.9-6.7,1.6-14.9,1.6s-14.9-0.7-14.9-1.6c0-0.9,6.7-1.6,14.9-1.6S255.5,218.2,255.5,219.1z"
				/>
			<path class="st0" d="M296.5,214.3c0,1.5-12.5,2.7-28,2.7c-15.4,0-27.9-1.2-27.9-2.7s12.5-2.7,27.9-2.7
				C284,211.7,296.5,212.9,296.5,214.3z"/>
			<path class="st0" d="M275.8,177.6c0,0.5-2.5,1-5.6,1s-5.6-0.4-5.6-1c0-0.5,2.5-1,5.6-1S275.8,177,275.8,177.6z"/>
			<path class="st0" d="M276.3,182.2c0,0.4-2.3,0.7-5.1,0.7c-2.8,0-5.1-0.3-5.1-0.7s2.3-0.7,5.1-0.7
				C274,181.4,276.3,181.8,276.3,182.2z"/>
			<path class="st0" d="M278.4,188.6c0,0.5-2.3,0.9-5.1,0.9c-2.8,0-5.1-0.4-5.1-0.9s2.3-0.9,5.1-0.9
				C276.2,187.7,278.4,188.1,278.4,188.6z"/>
			<path class="st0" d="M272.1,184.1c0,0.3-1.7,0.6-3.8,0.6c-2.1,0-3.8-0.2-3.8-0.6c0-0.3,1.7-0.6,3.8-0.6S272.1,183.8,272.1,184.1z
				"/>
			<path class="st0" d="M269,190.8c0,0.2-0.9,0.3-2,0.3s-2-0.1-2-0.3s0.9-0.3,2-0.3S269,190.6,269,190.8z"/>
			<path class="st0" d="M271.7,197.3c0,0.3-0.9,0.6-2,0.6s-2-0.3-2-0.6s0.9-0.6,2-0.6C270.8,196.7,271.7,197,271.7,197.3z"/>
			<path class="st0" d="M274.6,219.1c0,0.2-0.9,0.3-2,0.3s-2-0.1-2-0.3s0.9-0.3,2-0.3S274.6,218.9,274.6,219.1z"/>
			<path class="st0" d="M293.9,221.9c0,0.2-0.9,0.3-2,0.3s-2-0.1-2-0.3s0.9-0.3,2-0.3C293,221.6,293.9,221.8,293.9,221.9z"/>
			<path class="st0" d="M277.8,200.7c0,0.2-0.9,0.3-2,0.3s-2-0.1-2-0.3s0.9-0.3,2-0.3S277.8,200.5,277.8,200.7z"/>
			<path class="st0" d="M274.6,191.7c0,0.2-1.3,0.4-2.8,0.4c-1.6,0-2.8-0.2-2.8-0.4s1.3-0.4,2.8-0.4
				C273.4,191.3,274.6,191.5,274.6,191.7z"/>
			<path class="st0" d="M273.8,191.6c0,0.2-1.3,0.4-2.8,0.4c-1.6,0-2.8-0.2-2.8-0.4s1.3-0.4,2.8-0.4
				C272.6,191.2,273.8,191.4,273.8,191.6z"/>
			<path class="st0" d="M305.4,221.2c0,0.2-1.3,0.4-2.8,0.4c-1.6,0-2.8-0.2-2.8-0.4s1.3-0.4,2.8-0.4S305.4,221,305.4,221.2z"/>
			<path class="st0" d="M318.7,222.6c0,0.5-3.7,1-8.4,1c-4.6,0-8.4-0.4-8.4-1c0-0.5,3.7-0.9,8.4-0.9
				C315,221.7,318.7,222.1,318.7,222.6z"/>
			<path class="st0" d="M254,205.2c0,0.2-1.3,0.4-2.8,0.4c-1.6,0-2.8-0.2-2.8-0.4s1.3-0.4,2.8-0.4S254,205,254,205.2z"/>
			<path class="st0" d="M259.3,210.8c0,0.2-1.3,0.4-2.8,0.4c-1.6,0-2.8-0.2-2.8-0.4s1.3-0.4,2.8-0.4
				C258.1,210.4,259.3,210.6,259.3,210.8z"/>
			<path class="st0" d="M238.6,214.5c0,0.2-1.3,0.4-2.8,0.4c-1.6,0-2.8-0.2-2.8-0.4s1.3-0.4,2.8-0.4S238.6,214.3,238.6,214.5z"/>
			<path class="st0" d="M216.7,208.8c0,0.2-1.3,0.4-2.8,0.4c-1.6,0-2.8-0.2-2.8-0.4s1.3-0.4,2.8-0.4
				C215.4,208.4,216.7,208.6,216.7,208.8z"/>
			<path class="st0" d="M224.6,222.1c0,0.2-1.3,0.4-2.8,0.4c-1.6,0-2.8-0.2-2.8-0.4s1.3-0.4,2.8-0.4
				C223.3,221.7,224.6,221.9,224.6,222.1z"/>
			<path class="st0" d="M209.5,196.6c0,0.2-1.3,0.4-2.8,0.4c-1.6,0-2.8-0.2-2.8-0.4s1.3-0.4,2.8-0.4
				C208.3,196.2,209.5,196.4,209.5,196.6z"/>
			<path class="st0" d="M264.5,230.8c0,0.2-1.3,0.4-2.8,0.4c-1.6,0-2.8-0.2-2.8-0.4s1.3-0.4,2.8-0.4
				C263.3,230.4,264.5,230.6,264.5,230.8z"/>
			<path class="st0" d="M275.9,205.4c0,0.2-1.3,0.4-2.8,0.4c-1.6,0-2.8-0.2-2.8-0.4s1.3-0.4,2.8-0.4
				C274.7,205,275.9,205.2,275.9,205.4z"/>
			<path class="st0" d="M269.3,200.6c0,0.2-1.3,0.4-2.8,0.4c-1.6,0-2.8-0.2-2.8-0.4s1.3-0.4,2.8-0.4
				C268,200.2,269.3,200.4,269.3,200.6z"/>
			<path class="st0" d="M288.5,206.2c0,0.2-1.3,0.4-2.8,0.4c-1.6,0-2.8-0.2-2.8-0.4s1.3-0.4,2.8-0.4S288.5,206,288.5,206.2z"/>
			<path class="st0" d="M327.6,200.1c0,0.2-1.3,0.4-2.8,0.4c-1.6,0-2.8-0.2-2.8-0.4s1.3-0.4,2.8-0.4
				C326.3,199.7,327.6,199.9,327.6,200.1z"/>
			<path class="st0" d="M339.6,213.8c0,0.2-1.3,0.4-2.8,0.4c-1.6,0-2.8-0.2-2.8-0.4s1.3-0.4,2.8-0.4
				C338.4,213.4,339.6,213.6,339.6,213.8z"/>
			<path class="st0" d="M275.4,185.1c0,0.2-0.8,0.4-1.8,0.4s-1.8-0.2-1.8-0.4s0.8-0.4,1.8-0.4S275.4,184.9,275.4,185.1z"/>
			<path class="st0" d="M273.8,195.6c0,0.2-0.8,0.4-1.8,0.4s-1.8-0.2-1.8-0.4s0.8-0.4,1.8-0.4C273,195.2,273.8,195.4,273.8,195.6z"
				/>
			<path class="st0" d="M269.2,192.9c0,0.2-0.8,0.4-1.8,0.4s-1.8-0.2-1.8-0.4s0.8-0.4,1.8-0.4C268.4,192.5,269.2,192.7,269.2,192.9z
				"/>
			<path class="st0" d="M283.2,179.9c0,0.5-2.6,0.8-5.9,0.8s-5.9-0.4-5.9-0.8c0-0.5,2.6-0.8,5.9-0.8
				C280.6,179,283.2,179.4,283.2,179.9z"/>
			<path class="st0" d="M331.5,210.9c0,0.4-2.2,0.7-5,0.7c-2.7,0-5-0.3-5-0.7s2.2-0.7,5-0.7S331.5,210.5,331.5,210.9z"/>
		</g>
	</g>
	<g>
		<path class="st0" d="M85.3,378.2h-3.4l-2.6-4.8h-0.9v4.8h-2.9v-12.4H80c1.4,0,2.5,0.3,3.3,0.9s1.4,1.6,1.4,2.8
			c0,2.4-1.5,3.3-2.4,3.6L85.3,378.2z M81,368.4c-0.4-0.3-0.8-0.3-1.5-0.3h-1.2v3.2h1.2c0.7,0,1.1-0.1,1.5-0.3
			c0.4-0.3,0.6-0.6,0.6-1.3C81.6,369,81.4,368.6,81,368.4z"/>
		<path class="st0" d="M103.5,378.2h-8.2v-12.4h8v2.3h-5.1v2.5h4.9v2.3h-4.9v2.9h5.3C103.5,375.8,103.5,378.2,103.5,378.2z"/>
		<path class="st0" d="M121.3,377.4c-0.9,0.7-2,1-3.4,1c-1.8,0-3.4-0.9-4.4-1.9l1.4-2.1c0.9,0.9,2.3,1.6,3.2,1.6
			c0.9,0,1.7-0.4,1.7-1.3c0-0.8-0.9-1.2-1.5-1.4c-0.5-0.2-1.5-0.5-1.9-0.7c-0.3-0.1-0.9-0.4-1.5-0.9c-0.5-0.5-1-1.2-1-2.4
			c0-1.2,0.6-2.1,1.3-2.7c0.7-0.6,1.8-1,3.3-1s3.1,0.7,3.9,1.5l-1.2,2c-0.7-0.7-1.8-1.3-2.8-1.3c-0.9,0-1.6,0.4-1.6,1.1
			c0,0.8,0.7,1,1.3,1.3c0.5,0.2,1.5,0.5,1.9,0.7c0.3,0.1,1.2,0.4,1.7,1c0.5,0.5,1,1.3,1,2.4C122.7,375.6,122.2,376.7,121.3,377.4z"
			/>
		<path class="st0" d="M139.2,378.4c-3.7,0-6.6-2.4-6.6-6.4s2.9-6.4,6.6-6.4c3.7,0,6.6,2.4,6.6,6.4S142.8,378.4,139.2,378.4z
			 M139.2,368.1c-2.1,0-3.6,1.5-3.6,3.9s1.6,3.9,3.6,3.9c2.1,0,3.6-1.5,3.6-3.9S141.2,368.1,139.2,368.1z"/>
		<path class="st0" d="M166.2,378.2h-3.4l-2.6-4.8h-0.9v4.8h-2.9v-12.4h4.5c1.4,0,2.5,0.3,3.3,0.9s1.4,1.6,1.4,2.8
			c0,2.4-1.5,3.3-2.4,3.6L166.2,378.2z M161.9,368.4c-0.4-0.3-0.8-0.3-1.5-0.3h-1.2v3.2h1.2c0.7,0,1.1-0.1,1.5-0.3
			c0.4-0.3,0.6-0.6,0.6-1.3C162.6,369,162.3,368.6,161.9,368.4z"/>
		<path class="st0" d="M184.5,368.1h-3.2v10.1h-2.9v-10.1h-3.2v-2.3h9.3L184.5,368.1L184.5,368.1z"/>
		<path class="st0" d="M217.7,376.7c-0.6,0.6-1.9,1.7-4.5,1.7c-3.7,0-6.5-2.4-6.5-6.4s2.9-6.4,6.5-6.4c2.6,0,3.9,1.1,4.3,1.4
			l-0.9,2.4c-0.2-0.3-1.6-1.3-3.2-1.3c-2.1,0-3.7,1.4-3.7,3.8s1.7,3.8,3.7,3.8c1.5,0,2.7-0.6,3.3-1.3L217.7,376.7z"/>
		<path class="st0" d="M233.7,378.4c-3.7,0-6.6-2.4-6.6-6.4s2.9-6.4,6.6-6.4c3.7,0,6.6,2.4,6.6,6.4S237.4,378.4,233.7,378.4z
			 M233.7,368.1c-2.1,0-3.6,1.5-3.6,3.9s1.6,3.9,3.6,3.9c2.1,0,3.6-1.5,3.6-3.9C237.4,369.6,235.8,368.1,233.7,368.1z"/>
		<path class="st0" d="M262.2,378.2h-3l-5.5-8.4c0,0,0.1,1.5,0.1,2.8v5.6H251v-12.4h3.1l5.3,8.4c0,0-0.1-1.4-0.1-2.7v-5.6h2.8v12.3
			H262.2z"/>
		<path class="st0" d="M282.5,376.7c-1,0.9-2.6,1.5-4.8,1.5h-4.2v-12.4h4.2c2.2,0,3.8,0.6,4.8,1.5s2,2.3,2,4.7
			C284.5,374.4,283.6,375.9,282.5,376.7z M280.5,369.1c-0.5-0.5-1.4-0.9-2.6-0.9h-1.5v7.5h1.5c1.2,0,2.1-0.4,2.6-0.9
			s1.1-1.3,1.1-2.8C281.6,370.5,281,369.6,280.5,369.1z"/>
		<path class="st0" d="M301.1,378.4c-3.7,0-6.6-2.4-6.6-6.4s2.9-6.4,6.6-6.4s6.6,2.4,6.6,6.4S304.8,378.4,301.1,378.4z M301.1,368.1
			c-2.1,0-3.6,1.5-3.6,3.9s1.6,3.9,3.6,3.9c2.1,0,3.6-1.5,3.6-3.9S303.2,368.1,301.1,368.1z"/>
		<path class="st0" d="M332.3,378.2h-2.9l-0.5-8.5l0,0l-2.7,8.5h-2.3l-2.7-8.5h-0.1l-0.5,8.5h-2.9l0.9-12.4h3.7l2.6,8.2l0,0l2.6-8.2
			h3.7L332.3,378.2z"/>
		<path class="st0" d="M346.1,378.2h-2.9v-12.4h2.9V378.2z"/>
		<path class="st0" d="M368.6,378.2h-3l-5.5-8.4c0,0,0.1,1.5,0.1,2.8v5.6h-2.8v-12.4h3.1l5.3,8.4c0,0-0.1-1.4-0.1-2.7v-5.6h2.8v12.3
			H368.6z"/>
		<path class="st0" d="M382.9,378.2H380v-12.4h2.9V378.2z"/>
		<path class="st0" d="M404.5,373c0,1.7-0.3,3-1.2,3.9c-0.9,0.9-2.2,1.5-4,1.5s-3.2-0.5-4-1.5c-0.9-1-1.2-2.2-1.2-3.9v-7.2h2.9v7.2
			c0,0.9,0.1,1.6,0.5,2.1s1,0.8,1.8,0.8s1.4-0.3,1.8-0.8s0.5-1.2,0.5-2.1v-7.2h2.9L404.5,373L404.5,373z"/>
		<path class="st0" d="M429.6,378.2h-2.9l-0.5-8.5l0,0l-2.7,8.5h-2.3l-2.7-8.5h-0.1l-0.5,8.5H415l0.9-12.4h3.7l2.6,8.2l0,0l2.6-8.2
			h3.7L429.6,378.2z"/>
		<path class="st0" d="M447.3,377.4c-0.9,0.7-2,1-3.4,1c-1.8,0-3.4-0.9-4.4-1.9l1.4-2.1c0.9,0.9,2.3,1.6,3.2,1.6
			c0.9,0,1.7-0.4,1.7-1.3c0-0.8-0.9-1.2-1.5-1.4c-0.5-0.2-1.5-0.5-1.9-0.7c-0.3-0.1-0.9-0.4-1.5-0.9c-0.5-0.5-1-1.2-1-2.4
			c0-1.2,0.6-2.1,1.3-2.7c0.7-0.6,1.8-1,3.3-1s3.1,0.7,3.9,1.5l-1.2,2c-0.7-0.7-1.8-1.3-2.8-1.3c-0.9,0-1.6,0.4-1.6,1.1
			c0,0.8,0.7,1,1.3,1.3c0.5,0.2,1.5,0.5,1.9,0.7c0.3,0.1,1.2,0.4,1.7,1c0.5,0.5,1,1.3,1,2.4C448.8,375.6,448.2,376.7,447.3,377.4z"
			/>
	</g>
</g>
</svg>
